<svg width="364" height="497" viewBox="0 0 364 497" fill="none" xmlns="http://www.w3.org/2000/svg">
<g filter="url(#filter0_d)">
<path d="M184.538 420.383C184.538 425.45 188.56 454.585 196.981 478.193C205.403 501.801 360 478.193 360 478.193C354.009 471.552 341.876 456.543 341.272 449.634C340.669 442.724 336.329 433.857 334.234 430.287C332.6 425.604 328.276 416.237 324.053 416.237C318.774 416.237 316.386 419.923 315.758 415.316C315.129 410.71 315.758 400.921 315.758 397.582C315.758 394.242 310.102 389.06 311.484 378.696C312.867 368.331 304.571 356.009 303.189 355.549C301.806 355.088 289.866 299.005 291.751 295.551C293.259 292.787 270.677 269.678 259.198 258.469L157.892 339.542L184.538 420.383Z" fill="#2A2B2A"/>
<path d="M189.967 410.238C179.002 421.203 183.14 413.459 179.92 411.784C181.337 399.804 184.171 372.831 184.171 360.774C184.171 345.703 203.879 313.242 201.174 319.425C198.469 325.608 205.811 309.378 205.811 310.924C205.811 312.469 221.269 334.11 219.723 343.384C218.177 352.659 206.584 393.621 189.967 410.238Z" fill="#131313"/>
<g filter="url(#filter1_d)">
<path d="M214.326 317.661C237.755 311.304 251.237 308.333 255.05 307.642C260.706 306.376 272.747 303.428 275.663 301.769C278.579 300.111 284.251 294.092 286.723 291.29V279.083L280.69 263.536L261.46 245.456L163.8 287.029L214.326 317.661Z" fill="#727272"/>
</g>
<path d="M110.382 186.762C108.454 184.075 102.036 168.092 90.2715 164.5L99.1954 177.052L108.245 196.399L119.557 215.745L126.093 222.194V204.267L110.382 186.762Z" fill="#E4AB78"/>
<path d="M225.507 20.3536C222.617 21.5052 216.307 32.9289 215.704 34.8636C215.224 36.4016 213.27 44.8795 209.422 58.5793C207.219 66.4212 204.395 75.974 200.872 86.9156L178.374 187.91C182.354 222.803 190.742 292.843 192.451 293.857C194.161 294.87 207.911 295.584 214.572 295.814C219.6 293.972 231.716 290.287 239.962 290.287C250.268 290.287 265.602 281.65 270.504 278.771C275.406 275.892 272.389 263.814 275.532 257.595C276.138 256.395 281.345 252.153 281.816 251.412C283.953 250.376 319.176 225.041 324.455 207.306C329.734 189.572 333.097 191.135 339.004 177.661C344.912 164.187 342.524 162.46 349.562 155.09C356.601 147.72 347.049 144.15 345.666 144.15C344.283 144.15 334.48 143.113 330.206 144.15C325.933 145.186 315.501 154.053 310.85 157.047C307.13 159.443 298.792 176.144 295.189 183.399C294.142 181.134 284.734 193.139 282.823 188.809C280.435 183.397 278.158 177.523 277.027 171.419C275.895 165.316 278.171 144.61 279.302 136.204C280.433 127.797 281.816 118.469 281.816 113.287C281.816 109.141 286.718 67.0314 286.718 47.5311V41.0822C286.718 39.7003 285.712 33.9424 285.587 33.3666C285.461 32.7908 284.078 28.6451 281.816 26.3419C279.554 24.0387 278.799 23.6932 277.04 23.2326C275.28 22.7719 273.269 21.8507 269.247 22.5416C266.029 23.0944 265.141 24.5377 265.099 25.1903C264.764 25.0367 264.295 24.292 265.099 22.5416C266.105 20.3536 265.225 13.9047 265.099 9.75895C264.999 6.44239 263.13 4.23131 262.209 3.54034C258.899 2.19682 251.047 -0.0756551 246.12 1.58264C241.193 3.24093 237.34 10.1428 235.957 13.5592L225.507 20.3536Z" fill="#ECC29C"/>
<path d="M235.957 13.5592L225.507 20.3536C222.617 21.5052 216.307 32.9289 215.704 34.8636C215.224 36.4016 213.27 44.8795 209.422 58.5793M235.957 13.5592C237.34 10.1428 241.193 3.24093 246.12 1.58264C251.047 -0.0756551 258.899 2.19682 262.209 3.54034C263.13 4.23131 264.999 6.44239 265.099 9.75895C265.225 13.9047 266.105 20.3536 265.099 22.5416C264.295 24.292 264.764 25.0367 265.099 25.1903M235.957 13.5592C235.067 19.5754 234.325 25.6274 233.713 31.4089M265.099 25.1903C265.141 24.5377 266.029 23.0944 269.247 22.5416C273.269 21.8507 275.28 22.7719 277.04 23.2326C278.799 23.6932 279.554 24.0387 281.816 26.3419C284.078 28.6451 285.461 32.7908 285.587 33.3666C285.712 33.9424 286.718 39.7003 286.718 41.0822C286.718 42.1878 286.718 45.8421 286.718 47.5311C286.718 67.0314 281.816 109.141 281.816 113.287C281.816 118.469 280.433 127.797 279.302 136.204C278.171 144.61 275.895 165.316 277.027 171.419C278.158 177.523 280.435 183.397 282.823 188.809C284.734 193.139 294.142 181.134 295.189 183.399M265.099 25.1903C263.549 25.6893 260.348 27.6317 259.946 31.4089C259.443 36.1304 256.678 48.2221 257.432 50.5253C258.186 52.8285 257.432 68.0295 257.432 68.9507C257.432 69.2733 256.785 74.5501 255.815 81.2728M295.189 183.399C298.792 176.144 307.13 159.443 310.85 157.047C315.501 154.053 325.933 145.186 330.206 144.15C334.48 143.113 344.283 144.15 345.666 144.15C347.049 144.15 356.601 147.72 349.562 155.09C342.524 162.46 344.912 164.187 339.004 177.661C333.097 191.135 329.734 189.572 324.455 207.306C319.176 225.041 283.953 250.376 281.816 251.412M295.189 183.399C295.21 183.717 295.184 183.028 295.189 183.399ZM295.189 183.399C296.014 186.048 299.865 191.273 307.708 193.207M281.816 251.412C280.092 252.249 283.785 248.315 281.816 251.412ZM281.816 251.412C281.345 252.153 276.138 256.395 275.532 257.595C272.389 263.814 275.406 275.892 270.504 278.771C265.602 281.65 250.268 290.287 239.962 290.287C231.716 290.287 219.6 293.972 214.572 295.814C207.911 295.584 194.161 294.87 192.451 293.857C190.742 292.843 182.354 222.803 178.374 187.91L200.872 86.9155C204.395 75.974 207.219 66.4212 209.422 58.5793M231.289 70.6781V65.7263C231.41 59.7847 232.115 46.5212 233.713 31.4089M231.289 70.6781C228.675 76.1136 227.435 85.3801 227.141 89.3339M231.289 70.6781C235.227 71.9449 243.707 74.3402 246.12 73.7874M249.137 111.214C246.724 111.214 247.252 136.818 246.12 140.004M249.137 111.214C251.097 111.214 254.013 93.7523 255.815 81.2728M249.137 111.214C250.98 114.055 256.754 120.081 265.099 121.463M235.688 174.321C253.586 163.082 263.926 159.581 266.859 159.235M255.815 81.2728C264.65 84.0366 272.641 84.8811 275.532 84.9579M233.713 31.4089C235.251 32.0614 238.981 33.3666 241.596 33.3666M209.422 58.5793C214.447 61.3617 220.187 62.0573 222.428 62.0573" stroke="#E4AB78"/>
<path d="M268.801 198.084C275.602 196.538 289.668 187.65 290.828 186.104C291.987 184.558 287.736 200.016 281.939 203.494C276.143 206.972 273.051 207.745 273.051 207.745C273.051 207.745 269.573 208.517 259.912 214.7C250.252 220.883 244.841 228.226 244.841 228.226L251.024 214.7C254.116 209.806 261.999 199.629 268.801 198.084Z" fill="#D9A272"/>
<path d="M212.767 137.026C212.252 130.586 208.593 112.99 198.082 94.1317L190.74 125.82C185.845 144.626 176.055 182.703 176.055 184.558C176.055 186.877 210.062 217.406 219.336 218.565C226.756 219.492 234.536 212.253 237.499 208.517C239.174 199.114 242.096 190.285 242.136 178.375C242.165 169.726 240.462 163.047 239.818 156.348C239.174 149.65 229.384 134.321 229.384 134.321C226.679 144.626 220.882 164.773 219.336 162.918C217.791 161.063 214.313 144.884 212.767 137.026Z" fill="#E4AB78"/>
<path d="M161.412 45.4251C155.127 46.807 156.761 49.9163 153.996 67.6508L154.036 68.1114C154.023 67.9578 152.99 67.6508 150.979 67.6508C148.968 67.6508 139.667 88.7632 139.039 92.5251L135.479 113.599L132.252 128.455L127.224 178.664L120.311 216.091L106.485 190.065L94.1679 166.918C92.7853 165.382 89.4672 163.233 87.255 166.918C85.0429 170.603 86.3333 182.426 87.255 187.877C91.2352 196.706 99.9245 215.377 102.84 219.43C106.485 224.497 107.868 226.225 110.633 236.244C113.398 246.262 132.252 259.045 132.252 259.045L221.114 276.434C222.622 272.135 225.965 262.638 227.273 259.045C228.58 255.452 232.007 239.123 233.557 231.407L235.945 193.865C235.149 176.63 233.557 141.951 233.557 141.122C233.557 140.086 236.196 111.987 235.945 107.265C235.694 102.544 233.557 87.9187 233.557 86.0762C233.557 84.2336 230.918 79.8576 230.415 78.9363C229.912 78.015 226.518 77.5544 225.513 77.3241C224.507 77.0938 220.862 78.3605 219.354 78.9363C217.846 79.5121 216.589 95.6344 216.589 99.2043C216.589 102.066 216.831 117.726 215.698 128.455C215.417 131.112 215.052 133.466 214.578 135.249C212.667 142.435 211.52 155.939 210.179 160.699C208.922 157.667 208.81 151.066 207.743 146.301C206.584 141.122 205.98 131.575 205.425 129.684C204.177 125.438 200.495 81.7656 200.787 75.5826C201.08 69.3996 199.37 57.6319 198.993 55.3287C198.615 53.0255 190.571 50.2617 183.91 50.2617C178.581 50.2617 178.17 57.5551 178.631 61.2018C177.793 58.1693 175.765 51.7358 174.357 50.2617C172.598 48.4192 167.696 44.0432 161.412 45.4251Z" fill="#ECC29C"/>
<path d="M178.631 61.2018C177.793 58.1693 175.765 51.7358 174.357 50.2617C172.598 48.4192 167.696 44.0432 161.412 45.4251C155.127 46.807 156.761 49.9163 153.996 67.6508L154.036 68.1114M178.631 61.2018V70.5297C178.631 68.9175 178.631 70.1382 178.631 87.9187C178.631 92.2894 178.709 96.424 178.836 100.315M178.631 61.2018C178.17 57.5551 178.581 50.2617 183.91 50.2617C190.571 50.2617 198.615 53.0255 198.993 55.3287C199.37 57.6319 201.08 69.3996 200.787 75.5826C200.495 81.7656 204.177 125.439 205.425 129.684C205.98 131.575 206.584 141.122 207.743 146.301C208.81 151.066 208.922 157.667 210.179 160.699C211.52 155.939 212.667 142.435 214.578 135.249C215.052 133.466 215.417 131.112 215.698 128.455M183.91 160.699C181.075 156.062 179.359 116.209 178.836 100.315M155.756 87.9187V102.429C155.169 104.31 153.996 109.177 153.996 113.599M155.756 87.9187L154.036 68.1114M155.756 87.9187C157.893 87.9187 169.099 89.7613 170.645 87.9187M153.996 113.599C153.996 118.021 153.996 128.109 153.996 132.6L157.506 162.145M153.996 113.599C162.678 115.028 164.849 114.871 164.849 114.613M216.589 99.2043C216.589 95.6344 217.846 79.5121 219.354 78.9363C220.862 78.3605 224.507 77.0938 225.513 77.3241C226.518 77.5544 229.912 78.015 230.415 78.9363C230.918 79.8576 233.557 84.2336 233.557 86.0762C233.557 87.9187 235.694 102.544 235.945 107.265C236.196 111.987 233.557 140.086 233.557 141.122C233.557 141.951 235.149 176.63 235.945 193.865L233.557 231.407C232.007 239.123 228.58 255.452 227.273 259.045C225.965 262.638 222.622 272.135 221.114 276.434L132.252 259.045C132.252 259.045 113.398 246.263 110.633 236.244C107.868 226.225 106.485 224.497 102.84 219.43C99.9245 215.377 91.2352 196.706 87.255 187.877C86.3333 182.426 85.0429 170.603 87.255 166.918C89.4672 163.233 92.7853 165.382 94.1679 166.918L106.485 190.065L120.311 216.091L127.224 178.664L132.252 128.455L135.479 113.599M216.589 99.2043C216.589 102.066 216.831 117.726 215.698 128.455M216.589 99.2043C222.806 101.784 225.129 101.019 225.513 100.315M154.036 68.1114C154.023 67.9578 152.99 67.6508 150.979 67.6508C148.968 67.6508 139.667 88.7632 139.039 92.5251L135.479 113.599M215.698 128.455C222.009 129.747 224.871 128.993 225.513 128.455M178.836 100.315C190.214 102.006 189.71 101.019 188.035 100.315M135.479 113.599C137.669 114.275 142.667 115.424 145.14 114.613" stroke="#D9A272"/>
<path d="M155.574 97.996C155.188 97.996 151.71 110.362 151.71 110.362L150.55 137.413C151.452 143.338 153.255 155.343 153.255 155.962C153.255 156.58 155.961 159.826 157.12 161.372L155.574 147.46L153.642 132.775V118.091C154.028 114.355 154.75 105.257 154.801 104.952C154.907 104.318 155.188 102.247 155.188 102.247L155.574 97.996Z" fill="#D9A272"/>
<path d="M7.56819 451.246C57.5229 408.488 78.4568 364.646 80.3421 361.767C82.2274 358.888 83.1073 334.474 92.2826 320.655C101.458 306.836 115.535 287.144 120.688 280.35C125.842 273.555 145.449 251.675 146.832 250.063C148.214 248.451 174.735 240.389 187.178 240.85C199.621 241.311 199.621 238.201 208.293 246.263C215.232 252.711 220.653 261.54 222.496 265.149C221.449 270.599 218.525 283.275 215.206 290.368C211.059 299.236 211.059 323.649 211.059 327.795C211.059 331.941 215.206 355.433 208.293 367.64C201.381 379.847 187.178 397.466 187.178 404.606C187.178 411.746 173.352 434.087 172.975 436.16C172.598 438.233 167.57 455.046 165.685 460.919C164.177 465.618 165.175 465.051 159.652 479.805C154.128 494.56 4.48691 487.433 4 473.429L7.56819 451.246Z" fill="#2A2B2A"/>
<g filter="url(#filter2_d)">
<path d="M134.706 263.392C150.473 260.918 167.94 262.361 175.282 263.392L198.082 274.212L216.631 286.964L220.882 275.371L223.201 263.392C218.564 257.337 208.825 244.688 206.97 242.524C204.652 239.819 202.333 239.046 198.082 239.046H184.557L149.391 246.388C147.717 248.449 145.063 252.803 143.208 253.731C141.353 254.658 136.767 260.558 134.706 263.392Z" fill="#727272"/>
</g>
<path d="M295.085 454.803C295.085 443.912 312.56 418.234 315.523 415.786L316.333 422.218C315.044 426.984 312.391 436.825 312.082 438.062C311.773 439.298 304.215 463.64 301.123 470.596C301.768 467.118 295.085 465.022 295.085 454.803Z" fill="#131313"/>
<path d="M302.981 355.403C304.527 377.971 306.929 392.462 307.831 397.099L300.488 370.049C300.102 366.313 301.436 356.949 302.981 355.403Z" fill="#131313"/>
<path d="M80.9915 361.934C81.6039 353.432 114.49 328.276 121.832 324.282C120.028 327.374 121.832 334.037 104.017 348.022C103.474 348.449 88.3338 357.554 80.9915 361.934Z" fill="#131313"/>
</g>
<defs>
<filter id="filter0_d" x="0" y="0.5" width="364" height="496.185" filterUnits="userSpaceOnUse" color-interpolation-filters="sRGB">
<feFlood flood-opacity="0" result="BackgroundImageFix"/>
<feColorMatrix in="SourceAlpha" type="matrix" values="0 0 0 0 0 0 0 0 0 0 0 0 0 0 0 0 0 0 127 0"/>
<feOffset dy="4"/>
<feGaussianBlur stdDeviation="2"/>
<feColorMatrix type="matrix" values="0 0 0 0 0 0 0 0 0 0 0 0 0 0 0 0 0 0 0.25 0"/>
<feBlend mode="normal" in2="BackgroundImageFix" result="effect1_dropShadow"/>
<feBlend mode="normal" in="SourceGraphic" in2="effect1_dropShadow" result="shape"/>
</filter>
<filter id="filter1_d" x="159.8" y="245.456" width="130.924" height="80.2048" filterUnits="userSpaceOnUse" color-interpolation-filters="sRGB">
<feFlood flood-opacity="0" result="BackgroundImageFix"/>
<feColorMatrix in="SourceAlpha" type="matrix" values="0 0 0 0 0 0 0 0 0 0 0 0 0 0 0 0 0 0 127 0"/>
<feOffset dy="4"/>
<feGaussianBlur stdDeviation="2"/>
<feColorMatrix type="matrix" values="0 0 0 0 0 0 0 0 0 0 0 0 0 0 0 0 0 0 0.25 0"/>
<feBlend mode="normal" in2="BackgroundImageFix" result="effect1_dropShadow"/>
<feBlend mode="normal" in="SourceGraphic" in2="effect1_dropShadow" result="shape"/>
</filter>
<filter id="filter2_d" x="130.706" y="239.046" width="96.4944" height="55.9184" filterUnits="userSpaceOnUse" color-interpolation-filters="sRGB">
<feFlood flood-opacity="0" result="BackgroundImageFix"/>
<feColorMatrix in="SourceAlpha" type="matrix" values="0 0 0 0 0 0 0 0 0 0 0 0 0 0 0 0 0 0 127 0"/>
<feOffset dy="4"/>
<feGaussianBlur stdDeviation="2"/>
<feColorMatrix type="matrix" values="0 0 0 0 0 0 0 0 0 0 0 0 0 0 0 0 0 0 0.25 0"/>
<feBlend mode="normal" in2="BackgroundImageFix" result="effect1_dropShadow"/>
<feBlend mode="normal" in="SourceGraphic" in2="effect1_dropShadow" result="shape"/>
</filter>
</defs>
</svg>
