<svg width="1440" height="585" viewBox="0 0 1440 585" fill="none" xmlns="http://www.w3.org/2000/svg">
<path d="M-3 -3H1440V585C969.021 585 636.83 585 -3 585V-3Z" fill="url(#paint0_linear)"/>
<path d="M238.526 341.741V358.469H236.342V341.741H238.526ZM247.83 351.845C247.83 350.501 248.102 349.325 248.646 348.317C249.19 347.293 249.934 346.501 250.878 345.941C251.838 345.381 252.902 345.101 254.07 345.101C255.222 345.101 256.222 345.349 257.07 345.845C257.918 346.341 258.55 346.965 258.966 347.717V345.317H261.174V358.469H258.966V356.021C258.534 356.789 257.886 357.429 257.022 357.941C256.174 358.437 255.182 358.685 254.046 358.685C252.878 358.685 251.822 358.397 250.878 357.821C249.934 357.245 249.19 356.437 248.646 355.397C248.102 354.357 247.83 353.173 247.83 351.845ZM258.966 351.869C258.966 350.877 258.766 350.013 258.366 349.277C257.966 348.541 257.422 347.981 256.734 347.597C256.062 347.197 255.318 346.997 254.502 346.997C253.686 346.997 252.942 347.189 252.27 347.573C251.598 347.957 251.062 348.517 250.662 349.253C250.262 349.989 250.062 350.853 250.062 351.845C250.062 352.853 250.262 353.733 250.662 354.485C251.062 355.221 251.598 355.789 252.27 356.189C252.942 356.573 253.686 356.765 254.502 356.765C255.318 356.765 256.062 356.573 256.734 356.189C257.422 355.789 257.966 355.221 258.366 354.485C258.766 353.733 258.966 352.861 258.966 351.869ZM280.681 345.077C281.705 345.077 282.617 345.293 283.417 345.725C284.217 346.141 284.849 346.773 285.313 347.621C285.777 348.469 286.009 349.501 286.009 350.717V358.469H283.849V351.029C283.849 349.717 283.521 348.717 282.865 348.029C282.225 347.325 281.353 346.973 280.249 346.973C279.113 346.973 278.209 347.341 277.537 348.077C276.865 348.797 276.529 349.845 276.529 351.221V358.469H274.369V351.029C274.369 349.717 274.041 348.717 273.385 348.029C272.745 347.325 271.873 346.973 270.769 346.973C269.633 346.973 268.729 347.341 268.057 348.077C267.385 348.797 267.049 349.845 267.049 351.221V358.469H264.865V345.317H267.049V347.213C267.481 346.525 268.057 345.997 268.777 345.629C269.513 345.261 270.321 345.077 271.201 345.077C272.305 345.077 273.281 345.325 274.129 345.821C274.977 346.317 275.609 347.045 276.025 348.005C276.393 347.077 277.001 346.357 277.849 345.845C278.697 345.333 279.641 345.077 280.681 345.077ZM295.174 351.845C295.174 350.501 295.446 349.325 295.99 348.317C296.534 347.293 297.278 346.501 298.222 345.941C299.182 345.381 300.246 345.101 301.414 345.101C302.566 345.101 303.566 345.349 304.414 345.845C305.262 346.341 305.894 346.965 306.31 347.717V345.317H308.518V358.469H306.31V356.021C305.878 356.789 305.23 357.429 304.366 357.941C303.518 358.437 302.526 358.685 301.39 358.685C300.222 358.685 299.166 358.397 298.222 357.821C297.278 357.245 296.534 356.437 295.99 355.397C295.446 354.357 295.174 353.173 295.174 351.845ZM306.31 351.869C306.31 350.877 306.11 350.013 305.71 349.277C305.31 348.541 304.766 347.981 304.078 347.597C303.406 347.197 302.662 346.997 301.846 346.997C301.03 346.997 300.286 347.189 299.614 347.573C298.942 347.957 298.406 348.517 298.006 349.253C297.606 349.989 297.406 350.853 297.406 351.845C297.406 352.853 297.606 353.733 298.006 354.485C298.406 355.221 298.942 355.789 299.614 356.189C300.286 356.573 301.03 356.765 301.846 356.765C302.662 356.765 303.406 356.573 304.078 356.189C304.766 355.789 305.31 355.221 305.71 354.485C306.11 353.733 306.31 352.861 306.31 351.869ZM323.959 347.117H321.199V358.469H319.015V347.117H317.311V345.317H319.015V344.381C319.015 342.909 319.391 341.837 320.143 341.165C320.911 340.477 322.135 340.133 323.815 340.133V341.957C322.855 341.957 322.175 342.149 321.775 342.533C321.391 342.901 321.199 343.517 321.199 344.381V345.317H323.959V347.117ZM338.17 345.317V358.469H335.986V356.525C335.57 357.197 334.986 357.725 334.234 358.109C333.498 358.477 332.682 358.661 331.786 358.661C330.762 358.661 329.842 358.453 329.026 358.037C328.21 357.605 327.562 356.965 327.082 356.117C326.618 355.269 326.386 354.237 326.386 353.021V345.317H328.546V352.733C328.546 354.029 328.874 355.029 329.53 355.733C330.186 356.421 331.082 356.765 332.218 356.765C333.386 356.765 334.306 356.405 334.978 355.685C335.65 354.965 335.986 353.917 335.986 352.541V345.317H338.17ZM344.041 340.709V358.469H341.857V340.709H344.041ZM349.948 340.709V358.469H347.764V340.709H349.948ZM362.79 348.749V350.597H353.214V348.749H362.79ZM371.545 358.685C370.537 358.685 369.633 358.517 368.833 358.181C368.033 357.829 367.401 357.349 366.937 356.741C366.473 356.117 366.217 355.405 366.169 354.605H368.425C368.489 355.261 368.793 355.797 369.337 356.213C369.897 356.629 370.625 356.837 371.521 356.837C372.353 356.837 373.009 356.653 373.489 356.285C373.969 355.917 374.209 355.453 374.209 354.893C374.209 354.317 373.953 353.893 373.441 353.621C372.929 353.333 372.137 353.053 371.065 352.781C370.089 352.525 369.289 352.269 368.665 352.013C368.057 351.741 367.529 351.349 367.081 350.837C366.649 350.309 366.433 349.621 366.433 348.773C366.433 348.101 366.633 347.485 367.033 346.925C367.433 346.365 368.001 345.925 368.737 345.605C369.473 345.269 370.313 345.101 371.257 345.101C372.713 345.101 373.889 345.469 374.785 346.205C375.681 346.941 376.161 347.949 376.225 349.229H374.041C373.993 348.541 373.713 347.989 373.201 347.573C372.705 347.157 372.033 346.949 371.185 346.949C370.401 346.949 369.777 347.117 369.313 347.453C368.849 347.789 368.617 348.229 368.617 348.773C368.617 349.205 368.753 349.565 369.025 349.853C369.313 350.125 369.665 350.349 370.081 350.525C370.513 350.685 371.105 350.869 371.857 351.077C372.801 351.333 373.569 351.589 374.161 351.845C374.753 352.085 375.257 352.453 375.673 352.949C376.105 353.445 376.329 354.093 376.345 354.893C376.345 355.613 376.145 356.261 375.745 356.837C375.345 357.413 374.777 357.869 374.041 358.205C373.321 358.525 372.489 358.685 371.545 358.685ZM382.092 347.117V354.869C382.092 355.509 382.228 355.965 382.5 356.237C382.772 356.493 383.244 356.621 383.916 356.621H385.524V358.469H383.556C382.34 358.469 381.428 358.189 380.82 357.629C380.212 357.069 379.908 356.149 379.908 354.869V347.117H378.204V345.317H379.908V342.005H382.092V345.317H385.524V347.117H382.092ZM387.354 351.845C387.354 350.501 387.626 349.325 388.17 348.317C388.714 347.293 389.458 346.501 390.402 345.941C391.362 345.381 392.426 345.101 393.594 345.101C394.746 345.101 395.746 345.349 396.594 345.845C397.442 346.341 398.074 346.965 398.49 347.717V345.317H400.698V358.469H398.49V356.021C398.058 356.789 397.41 357.429 396.546 357.941C395.698 358.437 394.706 358.685 393.57 358.685C392.402 358.685 391.346 358.397 390.402 357.821C389.458 357.245 388.714 356.437 388.17 355.397C387.626 354.357 387.354 353.173 387.354 351.845ZM398.49 351.869C398.49 350.877 398.29 350.013 397.89 349.277C397.49 348.541 396.946 347.981 396.258 347.597C395.586 347.197 394.842 346.997 394.026 346.997C393.21 346.997 392.466 347.189 391.794 347.573C391.122 347.957 390.586 348.517 390.186 349.253C389.786 349.989 389.586 350.853 389.586 351.845C389.586 352.853 389.786 353.733 390.186 354.485C390.586 355.221 391.122 355.789 391.794 356.189C392.466 356.573 393.21 356.765 394.026 356.765C394.842 356.765 395.586 356.573 396.258 356.189C396.946 355.789 397.49 355.221 397.89 354.485C398.29 353.733 398.49 352.861 398.49 351.869ZM403.573 351.869C403.573 350.509 403.845 349.325 404.389 348.317C404.933 347.293 405.685 346.501 406.645 345.941C407.621 345.381 408.733 345.101 409.981 345.101C411.597 345.101 412.925 345.493 413.965 346.277C415.021 347.061 415.717 348.149 416.053 349.541H413.701C413.477 348.741 413.037 348.109 412.381 347.645C411.741 347.181 410.941 346.949 409.981 346.949C408.733 346.949 407.725 347.381 406.957 348.245C406.189 349.093 405.805 350.301 405.805 351.869C405.805 353.453 406.189 354.677 406.957 355.541C407.725 356.405 408.733 356.837 409.981 356.837C410.941 356.837 411.741 356.613 412.381 356.165C413.021 355.717 413.461 355.077 413.701 354.245H416.053C415.701 355.589 414.997 356.669 413.941 357.485C412.885 358.285 411.565 358.685 409.981 358.685C408.733 358.685 407.621 358.405 406.645 357.845C405.685 357.285 404.933 356.493 404.389 355.469C403.845 354.445 403.573 353.245 403.573 351.869ZM426.311 358.469L421.151 352.661V358.469H418.967V340.709H421.151V351.149L426.215 345.317H429.263L423.071 351.869L429.287 358.469H426.311ZM436.901 351.845C436.901 350.501 437.173 349.325 437.717 348.317C438.261 347.293 439.005 346.501 439.949 345.941C440.909 345.381 441.981 345.101 443.165 345.101C444.189 345.101 445.141 345.341 446.021 345.821C446.901 346.285 447.573 346.901 448.037 347.669V340.709H450.245V358.469H448.037V355.997C447.605 356.781 446.965 357.429 446.117 357.941C445.269 358.437 444.277 358.685 443.141 358.685C441.973 358.685 440.909 358.397 439.949 357.821C439.005 357.245 438.261 356.437 437.717 355.397C437.173 354.357 436.901 353.173 436.901 351.845ZM448.037 351.869C448.037 350.877 447.837 350.013 447.437 349.277C447.037 348.541 446.493 347.981 445.805 347.597C445.133 347.197 444.389 346.997 443.573 346.997C442.757 346.997 442.013 347.189 441.341 347.573C440.669 347.957 440.133 348.517 439.733 349.253C439.333 349.989 439.133 350.853 439.133 351.845C439.133 352.853 439.333 353.733 439.733 354.485C440.133 355.221 440.669 355.789 441.341 356.189C442.013 356.573 442.757 356.765 443.573 356.765C444.389 356.765 445.133 356.573 445.805 356.189C446.493 355.789 447.037 355.221 447.437 354.485C447.837 353.733 448.037 352.861 448.037 351.869ZM465.936 351.389C465.936 351.805 465.912 352.245 465.864 352.709H455.352C455.432 354.005 455.872 355.021 456.672 355.757C457.488 356.477 458.472 356.837 459.624 356.837C460.568 356.837 461.352 356.621 461.976 356.189C462.616 355.741 463.064 355.149 463.32 354.413H465.672C465.32 355.677 464.616 356.709 463.56 357.509C462.504 358.293 461.192 358.685 459.624 358.685C458.376 358.685 457.256 358.405 456.264 357.845C455.288 357.285 454.52 356.493 453.96 355.469C453.4 354.429 453.12 353.229 453.12 351.869C453.12 350.509 453.392 349.317 453.936 348.293C454.48 347.269 455.24 346.485 456.216 345.941C457.208 345.381 458.344 345.101 459.624 345.101C460.872 345.101 461.976 345.373 462.936 345.917C463.896 346.461 464.632 347.213 465.144 348.173C465.672 349.117 465.936 350.189 465.936 351.389ZM463.68 350.933C463.68 350.101 463.496 349.389 463.128 348.797C462.76 348.189 462.256 347.733 461.616 347.429C460.992 347.109 460.296 346.949 459.528 346.949C458.424 346.949 457.48 347.301 456.696 348.005C455.928 348.709 455.488 349.685 455.376 350.933H463.68ZM473.714 356.453L477.794 345.317H480.122L474.962 358.469H472.418L467.258 345.317H469.61L473.714 356.453ZM494.271 351.389C494.271 351.805 494.247 352.245 494.199 352.709H483.687C483.767 354.005 484.207 355.021 485.007 355.757C485.823 356.477 486.807 356.837 487.959 356.837C488.903 356.837 489.687 356.621 490.311 356.189C490.951 355.741 491.399 355.149 491.655 354.413H494.007C493.655 355.677 492.951 356.709 491.895 357.509C490.839 358.293 489.527 358.685 487.959 358.685C486.711 358.685 485.591 358.405 484.599 357.845C483.623 357.285 482.855 356.493 482.295 355.469C481.735 354.429 481.455 353.229 481.455 351.869C481.455 350.509 481.727 349.317 482.271 348.293C482.815 347.269 483.575 346.485 484.551 345.941C485.543 345.381 486.679 345.101 487.959 345.101C489.207 345.101 490.311 345.373 491.271 345.917C492.231 346.461 492.967 347.213 493.479 348.173C494.007 349.117 494.271 350.189 494.271 351.389ZM492.015 350.933C492.015 350.101 491.831 349.389 491.463 348.797C491.095 348.189 490.591 347.733 489.951 347.429C489.327 347.109 488.631 346.949 487.863 346.949C486.759 346.949 485.815 347.301 485.031 348.005C484.263 348.709 483.823 349.685 483.711 350.933H492.015ZM499.338 340.709V358.469H497.154V340.709H499.338ZM508.797 358.685C507.565 358.685 506.445 358.405 505.437 357.845C504.445 357.285 503.661 356.493 503.085 355.469C502.525 354.429 502.245 353.229 502.245 351.869C502.245 350.525 502.533 349.341 503.109 348.317C503.701 347.277 504.501 346.485 505.509 345.941C506.517 345.381 507.645 345.101 508.893 345.101C510.141 345.101 511.269 345.381 512.277 345.941C513.285 346.485 514.077 347.269 514.653 348.293C515.245 349.317 515.541 350.509 515.541 351.869C515.541 353.229 515.237 354.429 514.629 355.469C514.037 356.493 513.229 357.285 512.205 357.845C511.181 358.405 510.045 358.685 508.797 358.685ZM508.797 356.765C509.581 356.765 510.317 356.581 511.005 356.213C511.693 355.845 512.245 355.293 512.661 354.557C513.093 353.821 513.309 352.925 513.309 351.869C513.309 350.813 513.101 349.917 512.685 349.181C512.269 348.445 511.725 347.901 511.053 347.549C510.381 347.181 509.653 346.997 508.869 346.997C508.069 346.997 507.333 347.181 506.661 347.549C506.005 347.901 505.477 348.445 505.077 349.181C504.677 349.917 504.477 350.813 504.477 351.869C504.477 352.941 504.669 353.845 505.053 354.581C505.453 355.317 505.981 355.869 506.637 356.237C507.293 356.589 508.013 356.765 508.797 356.765ZM520.596 347.741C521.028 346.989 521.668 346.365 522.516 345.869C523.38 345.357 524.38 345.101 525.516 345.101C526.684 345.101 527.74 345.381 528.684 345.941C529.644 346.501 530.396 347.293 530.94 348.317C531.484 349.325 531.756 350.501 531.756 351.845C531.756 353.173 531.484 354.357 530.94 355.397C530.396 356.437 529.644 357.245 528.684 357.821C527.74 358.397 526.684 358.685 525.516 358.685C524.396 358.685 523.404 358.437 522.54 357.941C521.692 357.429 521.044 356.797 520.596 356.045V364.709H518.412V345.317H520.596V347.741ZM529.524 351.845C529.524 350.853 529.324 349.989 528.924 349.253C528.524 348.517 527.98 347.957 527.292 347.573C526.62 347.189 525.876 346.997 525.06 346.997C524.26 346.997 523.516 347.197 522.828 347.597C522.156 347.981 521.612 348.549 521.196 349.301C520.796 350.037 520.596 350.893 520.596 351.869C520.596 352.861 520.796 353.733 521.196 354.485C521.612 355.221 522.156 355.789 522.828 356.189C523.516 356.573 524.26 356.765 525.06 356.765C525.876 356.765 526.62 356.573 527.292 356.189C527.98 355.789 528.524 355.221 528.924 354.485C529.324 353.733 529.524 352.853 529.524 351.845ZM546.631 351.389C546.631 351.805 546.607 352.245 546.559 352.709H536.047C536.127 354.005 536.567 355.021 537.367 355.757C538.183 356.477 539.167 356.837 540.319 356.837C541.263 356.837 542.047 356.621 542.671 356.189C543.311 355.741 543.759 355.149 544.015 354.413H546.367C546.015 355.677 545.311 356.709 544.255 357.509C543.199 358.293 541.887 358.685 540.319 358.685C539.071 358.685 537.951 358.405 536.959 357.845C535.983 357.285 535.215 356.493 534.655 355.469C534.095 354.429 533.815 353.229 533.815 351.869C533.815 350.509 534.087 349.317 534.631 348.293C535.175 347.269 535.935 346.485 536.911 345.941C537.903 345.381 539.039 345.101 540.319 345.101C541.567 345.101 542.671 345.373 543.631 345.917C544.591 346.461 545.327 347.213 545.839 348.173C546.367 349.117 546.631 350.189 546.631 351.389ZM544.375 350.933C544.375 350.101 544.191 349.389 543.823 348.797C543.455 348.189 542.951 347.733 542.311 347.429C541.687 347.109 540.991 346.949 540.223 346.949C539.119 346.949 538.175 347.301 537.391 348.005C536.623 348.709 536.183 349.685 536.071 350.933H544.375ZM551.698 347.453C552.082 346.701 552.626 346.117 553.33 345.701C554.05 345.285 554.922 345.077 555.946 345.077V347.333H555.37C552.922 347.333 551.698 348.661 551.698 351.317V358.469H549.514V345.317H551.698V347.453ZM235.526 387.845C235.526 386.501 235.798 385.325 236.342 384.317C236.886 383.293 237.63 382.501 238.574 381.941C239.534 381.381 240.598 381.101 241.766 381.101C242.918 381.101 243.918 381.349 244.766 381.845C245.614 382.341 246.246 382.965 246.662 383.717V381.317H248.87V394.469H246.662V392.021C246.23 392.789 245.582 393.429 244.718 393.941C243.87 394.437 242.878 394.685 241.742 394.685C240.574 394.685 239.518 394.397 238.574 393.821C237.63 393.245 236.886 392.437 236.342 391.397C235.798 390.357 235.526 389.173 235.526 387.845ZM246.662 387.869C246.662 386.877 246.462 386.013 246.062 385.277C245.662 384.541 245.118 383.981 244.43 383.597C243.758 383.197 243.014 382.997 242.198 382.997C241.382 382.997 240.638 383.189 239.966 383.573C239.294 383.957 238.758 384.517 238.358 385.253C237.958 385.989 237.758 386.853 237.758 387.845C237.758 388.853 237.958 389.733 238.358 390.485C238.758 391.221 239.294 391.789 239.966 392.189C240.638 392.573 241.382 392.765 242.198 392.765C243.014 392.765 243.758 392.573 244.43 392.189C245.118 391.789 245.662 391.221 246.062 390.485C246.462 389.733 246.662 388.861 246.662 387.869ZM258.969 381.077C260.569 381.077 261.865 381.565 262.857 382.541C263.849 383.501 264.345 384.893 264.345 386.717V394.469H262.185V387.029C262.185 385.717 261.857 384.717 261.201 384.029C260.545 383.325 259.649 382.973 258.513 382.973C257.361 382.973 256.441 383.333 255.753 384.053C255.081 384.773 254.745 385.821 254.745 387.197V394.469H252.561V381.317H254.745V383.189C255.177 382.517 255.761 381.997 256.497 381.629C257.249 381.261 258.073 381.077 258.969 381.077ZM267.096 387.845C267.096 386.501 267.368 385.325 267.912 384.317C268.456 383.293 269.2 382.501 270.144 381.941C271.104 381.381 272.176 381.101 273.36 381.101C274.384 381.101 275.336 381.341 276.216 381.821C277.096 382.285 277.768 382.901 278.232 383.669V376.709H280.44V394.469H278.232V391.997C277.8 392.781 277.16 393.429 276.312 393.941C275.464 394.437 274.472 394.685 273.336 394.685C272.168 394.685 271.104 394.397 270.144 393.821C269.2 393.245 268.456 392.437 267.912 391.397C267.368 390.357 267.096 389.173 267.096 387.845ZM278.232 387.869C278.232 386.877 278.032 386.013 277.632 385.277C277.232 384.541 276.688 383.981 276 383.597C275.328 383.197 274.584 382.997 273.768 382.997C272.952 382.997 272.208 383.189 271.536 383.573C270.864 383.957 270.328 384.517 269.928 385.253C269.528 385.989 269.328 386.853 269.328 387.845C269.328 388.853 269.528 389.733 269.928 390.485C270.328 391.221 270.864 391.789 271.536 392.189C272.208 392.573 272.952 392.765 273.768 392.765C274.584 392.765 275.328 392.573 276 392.189C276.688 391.789 277.232 391.221 277.632 390.485C278.032 389.733 278.232 388.861 278.232 387.869ZM308.049 381.317L303.945 394.469H301.689L298.521 384.029L295.353 394.469H293.097L288.969 381.317H291.201L294.225 392.357L297.489 381.317H299.721L302.913 392.381L305.889 381.317H308.049ZM322.217 387.389C322.217 387.805 322.193 388.245 322.145 388.709H311.633C311.713 390.005 312.153 391.021 312.953 391.757C313.769 392.477 314.753 392.837 315.905 392.837C316.849 392.837 317.633 392.621 318.257 392.189C318.897 391.741 319.345 391.149 319.601 390.413H321.953C321.601 391.677 320.897 392.709 319.841 393.509C318.785 394.293 317.473 394.685 315.905 394.685C314.657 394.685 313.537 394.405 312.545 393.845C311.569 393.285 310.801 392.493 310.241 391.469C309.681 390.429 309.401 389.229 309.401 387.869C309.401 386.509 309.673 385.317 310.217 384.293C310.761 383.269 311.521 382.485 312.497 381.941C313.489 381.381 314.625 381.101 315.905 381.101C317.153 381.101 318.257 381.373 319.217 381.917C320.177 382.461 320.913 383.213 321.425 384.173C321.953 385.117 322.217 386.189 322.217 387.389ZM319.961 386.933C319.961 386.101 319.777 385.389 319.409 384.797C319.041 384.189 318.537 383.733 317.897 383.429C317.273 383.109 316.577 382.949 315.809 382.949C314.705 382.949 313.761 383.301 312.977 384.005C312.209 384.709 311.769 385.685 311.657 386.933H319.961ZM327.284 383.765C327.732 382.981 328.388 382.341 329.252 381.845C330.116 381.349 331.1 381.101 332.204 381.101C333.388 381.101 334.452 381.381 335.396 381.941C336.34 382.501 337.084 383.293 337.628 384.317C338.172 385.325 338.444 386.501 338.444 387.845C338.444 389.173 338.172 390.357 337.628 391.397C337.084 392.437 336.332 393.245 335.372 393.821C334.428 394.397 333.372 394.685 332.204 394.685C331.068 394.685 330.068 394.437 329.204 393.941C328.356 393.445 327.716 392.813 327.284 392.045V394.469H325.1V376.709H327.284V383.765ZM336.212 387.845C336.212 386.853 336.012 385.989 335.612 385.253C335.212 384.517 334.668 383.957 333.98 383.573C333.308 383.189 332.564 382.997 331.748 382.997C330.948 382.997 330.204 383.197 329.516 383.597C328.844 383.981 328.3 384.549 327.884 385.301C327.484 386.037 327.284 386.893 327.284 387.869C327.284 388.861 327.484 389.733 327.884 390.485C328.3 391.221 328.844 391.789 329.516 392.189C330.204 392.573 330.948 392.765 331.748 392.765C332.564 392.765 333.308 392.573 333.98 392.189C334.668 391.789 335.212 391.221 335.612 390.485C336.012 389.733 336.212 388.853 336.212 387.845ZM346.901 387.845C346.901 386.501 347.173 385.325 347.717 384.317C348.261 383.293 349.005 382.501 349.949 381.941C350.909 381.381 351.981 381.101 353.165 381.101C354.189 381.101 355.141 381.341 356.021 381.821C356.901 382.285 357.573 382.901 358.037 383.669V376.709H360.245V394.469H358.037V391.997C357.605 392.781 356.965 393.429 356.117 393.941C355.269 394.437 354.277 394.685 353.141 394.685C351.973 394.685 350.909 394.397 349.949 393.821C349.005 393.245 348.261 392.437 347.717 391.397C347.173 390.357 346.901 389.173 346.901 387.845ZM358.037 387.869C358.037 386.877 357.837 386.013 357.437 385.277C357.037 384.541 356.493 383.981 355.805 383.597C355.133 383.197 354.389 382.997 353.573 382.997C352.757 382.997 352.013 383.189 351.341 383.573C350.669 383.957 350.133 384.517 349.733 385.253C349.333 385.989 349.133 386.853 349.133 387.845C349.133 388.853 349.333 389.733 349.733 390.485C350.133 391.221 350.669 391.789 351.341 392.189C352.013 392.573 352.757 392.765 353.573 392.765C354.389 392.765 355.133 392.573 355.805 392.189C356.493 391.789 357.037 391.221 357.437 390.485C357.837 389.733 358.037 388.861 358.037 387.869ZM375.936 387.389C375.936 387.805 375.912 388.245 375.864 388.709H365.352C365.432 390.005 365.872 391.021 366.672 391.757C367.488 392.477 368.472 392.837 369.624 392.837C370.568 392.837 371.352 392.621 371.976 392.189C372.616 391.741 373.064 391.149 373.32 390.413H375.672C375.32 391.677 374.616 392.709 373.56 393.509C372.504 394.293 371.192 394.685 369.624 394.685C368.376 394.685 367.256 394.405 366.264 393.845C365.288 393.285 364.52 392.493 363.96 391.469C363.4 390.429 363.12 389.229 363.12 387.869C363.12 386.509 363.392 385.317 363.936 384.293C364.48 383.269 365.24 382.485 366.216 381.941C367.208 381.381 368.344 381.101 369.624 381.101C370.872 381.101 371.976 381.373 372.936 381.917C373.896 382.461 374.632 383.213 375.144 384.173C375.672 385.117 375.936 386.189 375.936 387.389ZM373.68 386.933C373.68 386.101 373.496 385.389 373.128 384.797C372.76 384.189 372.256 383.733 371.616 383.429C370.992 383.109 370.296 382.949 369.528 382.949C368.424 382.949 367.48 383.301 366.696 384.005C365.928 384.709 365.488 385.685 365.376 386.933H373.68ZM383.474 394.685C382.466 394.685 381.562 394.517 380.762 394.181C379.962 393.829 379.33 393.349 378.866 392.741C378.402 392.117 378.146 391.405 378.098 390.605H380.354C380.418 391.261 380.722 391.797 381.266 392.213C381.826 392.629 382.554 392.837 383.45 392.837C384.282 392.837 384.938 392.653 385.418 392.285C385.898 391.917 386.138 391.453 386.138 390.893C386.138 390.317 385.882 389.893 385.37 389.621C384.858 389.333 384.066 389.053 382.994 388.781C382.018 388.525 381.218 388.269 380.594 388.013C379.986 387.741 379.458 387.349 379.01 386.837C378.578 386.309 378.362 385.621 378.362 384.773C378.362 384.101 378.562 383.485 378.962 382.925C379.362 382.365 379.93 381.925 380.666 381.605C381.402 381.269 382.242 381.101 383.186 381.101C384.642 381.101 385.818 381.469 386.714 382.205C387.61 382.941 388.09 383.949 388.154 385.229H385.97C385.922 384.541 385.642 383.989 385.13 383.573C384.634 383.157 383.962 382.949 383.114 382.949C382.33 382.949 381.706 383.117 381.242 383.453C380.778 383.789 380.546 384.229 380.546 384.773C380.546 385.205 380.682 385.565 380.954 385.853C381.242 386.125 381.594 386.349 382.01 386.525C382.442 386.685 383.034 386.869 383.786 387.077C384.73 387.333 385.498 387.589 386.09 387.845C386.682 388.085 387.186 388.453 387.602 388.949C388.034 389.445 388.258 390.093 388.274 390.893C388.274 391.613 388.074 392.261 387.674 392.837C387.274 393.413 386.706 393.869 385.97 394.205C385.25 394.525 384.418 394.685 383.474 394.685ZM392.485 379.181C392.069 379.181 391.717 379.037 391.429 378.749C391.141 378.461 390.997 378.109 390.997 377.693C390.997 377.277 391.141 376.925 391.429 376.637C391.717 376.349 392.069 376.205 392.485 376.205C392.885 376.205 393.221 376.349 393.493 376.637C393.781 376.925 393.925 377.277 393.925 377.693C393.925 378.109 393.781 378.461 393.493 378.749C393.221 379.037 392.885 379.181 392.485 379.181ZM393.541 381.317V394.469H391.357V381.317H393.541ZM402.688 381.101C403.824 381.101 404.816 381.349 405.664 381.845C406.528 382.341 407.168 382.965 407.584 383.717V381.317H409.792V394.757C409.792 395.957 409.536 397.021 409.024 397.949C408.512 398.893 407.776 399.629 406.816 400.157C405.872 400.685 404.768 400.949 403.504 400.949C401.776 400.949 400.336 400.541 399.184 399.725C398.032 398.909 397.352 397.797 397.144 396.389H399.304C399.544 397.189 400.04 397.829 400.792 398.309C401.544 398.805 402.448 399.053 403.504 399.053C404.704 399.053 405.68 398.677 406.432 397.925C407.2 397.173 407.584 396.117 407.584 394.757V391.997C407.152 392.765 406.512 393.405 405.664 393.917C404.816 394.429 403.824 394.685 402.688 394.685C401.52 394.685 400.456 394.397 399.496 393.821C398.552 393.245 397.808 392.437 397.264 391.397C396.72 390.357 396.448 389.173 396.448 387.845C396.448 386.501 396.72 385.325 397.264 384.317C397.808 383.293 398.552 382.501 399.496 381.941C400.456 381.381 401.52 381.101 402.688 381.101ZM407.584 387.869C407.584 386.877 407.384 386.013 406.984 385.277C406.584 384.541 406.04 383.981 405.352 383.597C404.68 383.197 403.936 382.997 403.12 382.997C402.304 382.997 401.56 383.189 400.888 383.573C400.216 383.957 399.68 384.517 399.28 385.253C398.88 385.989 398.68 386.853 398.68 387.845C398.68 388.853 398.88 389.733 399.28 390.485C399.68 391.221 400.216 391.789 400.888 392.189C401.56 392.573 402.304 392.765 403.12 392.765C403.936 392.765 404.68 392.573 405.352 392.189C406.04 391.789 406.584 391.221 406.984 390.485C407.384 389.733 407.584 388.861 407.584 387.869ZM419.89 381.077C421.49 381.077 422.786 381.565 423.778 382.541C424.77 383.501 425.266 384.893 425.266 386.717V394.469H423.106V387.029C423.106 385.717 422.778 384.717 422.122 384.029C421.466 383.325 420.57 382.973 419.434 382.973C418.282 382.973 417.362 383.333 416.674 384.053C416.002 384.773 415.666 385.821 415.666 387.197V394.469H413.482V381.317H415.666V383.189C416.098 382.517 416.682 381.997 417.418 381.629C418.17 381.261 418.994 381.077 419.89 381.077ZM440.834 387.389C440.834 387.805 440.81 388.245 440.762 388.709H430.25C430.33 390.005 430.77 391.021 431.57 391.757C432.386 392.477 433.37 392.837 434.522 392.837C435.466 392.837 436.25 392.621 436.874 392.189C437.514 391.741 437.962 391.149 438.218 390.413H440.57C440.218 391.677 439.514 392.709 438.458 393.509C437.402 394.293 436.09 394.685 434.522 394.685C433.274 394.685 432.154 394.405 431.162 393.845C430.186 393.285 429.418 392.493 428.858 391.469C428.298 390.429 428.018 389.229 428.018 387.869C428.018 386.509 428.29 385.317 428.834 384.293C429.378 383.269 430.138 382.485 431.114 381.941C432.106 381.381 433.242 381.101 434.522 381.101C435.77 381.101 436.874 381.373 437.834 381.917C438.794 382.461 439.53 383.213 440.042 384.173C440.57 385.117 440.834 386.189 440.834 387.389ZM438.578 386.933C438.578 386.101 438.394 385.389 438.026 384.797C437.658 384.189 437.154 383.733 436.514 383.429C435.89 383.109 435.194 382.949 434.426 382.949C433.322 382.949 432.378 383.301 431.594 384.005C430.826 384.709 430.386 385.685 430.274 386.933H438.578ZM445.901 383.453C446.285 382.701 446.829 382.117 447.533 381.701C448.253 381.285 449.125 381.077 450.149 381.077V383.333H449.573C447.125 383.333 445.901 384.661 445.901 387.317V394.469H443.717V381.317H445.901V383.453ZM464.42 383.117H461.66V394.469H459.476V383.117H457.772V381.317H459.476V380.381C459.476 378.909 459.852 377.837 460.604 377.165C461.372 376.477 462.596 376.133 464.276 376.133V377.957C463.316 377.957 462.636 378.149 462.236 378.533C461.852 378.901 461.66 379.517 461.66 380.381V381.317H464.42V383.117ZM472.703 394.685C471.471 394.685 470.351 394.405 469.343 393.845C468.351 393.285 467.567 392.493 466.991 391.469C466.431 390.429 466.151 389.229 466.151 387.869C466.151 386.525 466.439 385.341 467.015 384.317C467.607 383.277 468.407 382.485 469.415 381.941C470.423 381.381 471.551 381.101 472.799 381.101C474.047 381.101 475.175 381.381 476.183 381.941C477.191 382.485 477.983 383.269 478.559 384.293C479.151 385.317 479.447 386.509 479.447 387.869C479.447 389.229 479.143 390.429 478.535 391.469C477.943 392.493 477.135 393.285 476.111 393.845C475.087 394.405 473.951 394.685 472.703 394.685ZM472.703 392.765C473.487 392.765 474.223 392.581 474.911 392.213C475.599 391.845 476.151 391.293 476.567 390.557C476.999 389.821 477.215 388.925 477.215 387.869C477.215 386.813 477.007 385.917 476.591 385.181C476.175 384.445 475.631 383.901 474.959 383.549C474.287 383.181 473.559 382.997 472.775 382.997C471.975 382.997 471.239 383.181 470.567 383.549C469.911 383.901 469.383 384.445 468.983 385.181C468.583 385.917 468.383 386.813 468.383 387.869C468.383 388.941 468.575 389.845 468.959 390.581C469.359 391.317 469.887 391.869 470.543 392.237C471.199 392.589 471.919 392.765 472.703 392.765ZM481.502 387.869C481.502 386.509 481.774 385.325 482.318 384.317C482.862 383.293 483.614 382.501 484.574 381.941C485.55 381.381 486.662 381.101 487.91 381.101C489.526 381.101 490.854 381.493 491.894 382.277C492.95 383.061 493.646 384.149 493.982 385.541H491.63C491.406 384.741 490.966 384.109 490.31 383.645C489.67 383.181 488.87 382.949 487.91 382.949C486.662 382.949 485.654 383.381 484.886 384.245C484.118 385.093 483.734 386.301 483.734 387.869C483.734 389.453 484.118 390.677 484.886 391.541C485.654 392.405 486.662 392.837 487.91 392.837C488.87 392.837 489.67 392.613 490.31 392.165C490.95 391.717 491.39 391.077 491.63 390.245H493.982C493.63 391.589 492.926 392.669 491.87 393.485C490.814 394.285 489.494 394.685 487.91 394.685C486.662 394.685 485.55 394.405 484.574 393.845C483.614 393.285 482.862 392.493 482.318 391.469C481.774 390.445 481.502 389.245 481.502 387.869ZM508.56 381.317V394.469H506.376V392.525C505.96 393.197 505.376 393.725 504.624 394.109C503.888 394.477 503.072 394.661 502.176 394.661C501.152 394.661 500.232 394.453 499.416 394.037C498.6 393.605 497.952 392.965 497.472 392.117C497.008 391.269 496.776 390.237 496.776 389.021V381.317H498.936V388.733C498.936 390.029 499.264 391.029 499.92 391.733C500.576 392.421 501.472 392.765 502.608 392.765C503.776 392.765 504.696 392.405 505.368 391.685C506.04 390.965 506.376 389.917 506.376 388.541V381.317H508.56ZM516.904 394.685C515.896 394.685 514.992 394.517 514.192 394.181C513.392 393.829 512.76 393.349 512.296 392.741C511.832 392.117 511.576 391.405 511.528 390.605H513.784C513.848 391.261 514.152 391.797 514.696 392.213C515.256 392.629 515.984 392.837 516.88 392.837C517.712 392.837 518.368 392.653 518.848 392.285C519.328 391.917 519.568 391.453 519.568 390.893C519.568 390.317 519.312 389.893 518.8 389.621C518.288 389.333 517.496 389.053 516.424 388.781C515.448 388.525 514.648 388.269 514.024 388.013C513.416 387.741 512.888 387.349 512.44 386.837C512.008 386.309 511.792 385.621 511.792 384.773C511.792 384.101 511.992 383.485 512.392 382.925C512.792 382.365 513.36 381.925 514.096 381.605C514.832 381.269 515.672 381.101 516.616 381.101C518.072 381.101 519.248 381.469 520.144 382.205C521.04 382.941 521.52 383.949 521.584 385.229H519.4C519.352 384.541 519.072 383.989 518.56 383.573C518.064 383.157 517.392 382.949 516.544 382.949C515.76 382.949 515.136 383.117 514.672 383.453C514.208 383.789 513.976 384.229 513.976 384.773C513.976 385.205 514.112 385.565 514.384 385.853C514.672 386.125 515.024 386.349 515.44 386.525C515.872 386.685 516.464 386.869 517.216 387.077C518.16 387.333 518.928 387.589 519.52 387.845C520.112 388.085 520.616 388.453 521.032 388.949C521.464 389.445 521.688 390.093 521.704 390.893C521.704 391.613 521.504 392.261 521.104 392.837C520.704 393.413 520.136 393.869 519.4 394.205C518.68 394.525 517.848 394.685 516.904 394.685ZM536.787 387.389C536.787 387.805 536.763 388.245 536.715 388.709H526.203C526.283 390.005 526.723 391.021 527.523 391.757C528.339 392.477 529.323 392.837 530.475 392.837C531.419 392.837 532.203 392.621 532.827 392.189C533.467 391.741 533.915 391.149 534.171 390.413H536.523C536.171 391.677 535.467 392.709 534.411 393.509C533.355 394.293 532.043 394.685 530.475 394.685C529.227 394.685 528.107 394.405 527.115 393.845C526.139 393.285 525.371 392.493 524.811 391.469C524.251 390.429 523.971 389.229 523.971 387.869C523.971 386.509 524.243 385.317 524.787 384.293C525.331 383.269 526.091 382.485 527.067 381.941C528.059 381.381 529.195 381.101 530.475 381.101C531.723 381.101 532.827 381.373 533.787 381.917C534.747 382.461 535.483 383.213 535.995 384.173C536.523 385.117 536.787 386.189 536.787 387.389ZM534.531 386.933C534.531 386.101 534.347 385.389 533.979 384.797C533.611 384.189 533.107 383.733 532.467 383.429C531.843 383.109 531.147 382.949 530.379 382.949C529.275 382.949 528.331 383.301 527.547 384.005C526.779 384.709 526.339 385.685 526.227 386.933H534.531ZM538.854 387.845C538.854 386.501 539.126 385.325 539.67 384.317C540.214 383.293 540.958 382.501 541.902 381.941C542.862 381.381 543.934 381.101 545.118 381.101C546.142 381.101 547.094 381.341 547.974 381.821C548.854 382.285 549.526 382.901 549.99 383.669V376.709H552.198V394.469H549.99V391.997C549.558 392.781 548.918 393.429 548.07 393.941C547.222 394.437 546.23 394.685 545.094 394.685C543.926 394.685 542.862 394.397 541.902 393.821C540.958 393.245 540.214 392.437 539.67 391.397C539.126 390.357 538.854 389.173 538.854 387.845ZM549.99 387.869C549.99 386.877 549.79 386.013 549.39 385.277C548.99 384.541 548.446 383.981 547.758 383.597C547.086 383.197 546.342 382.997 545.526 382.997C544.71 382.997 543.966 383.189 543.294 383.573C542.622 383.957 542.086 384.517 541.686 385.253C541.286 385.989 541.086 386.853 541.086 387.845C541.086 388.853 541.286 389.733 541.686 390.485C542.086 391.221 542.622 391.789 543.294 392.189C543.966 392.573 544.71 392.765 545.526 392.765C546.342 392.765 547.086 392.573 547.758 392.189C548.446 391.789 548.99 391.221 549.39 390.485C549.79 389.733 549.99 388.861 549.99 387.869ZM242.078 430.685C240.846 430.685 239.726 430.405 238.718 429.845C237.726 429.285 236.942 428.493 236.366 427.469C235.806 426.429 235.526 425.229 235.526 423.869C235.526 422.525 235.814 421.341 236.39 420.317C236.982 419.277 237.782 418.485 238.79 417.941C239.798 417.381 240.926 417.101 242.174 417.101C243.422 417.101 244.55 417.381 245.558 417.941C246.566 418.485 247.358 419.269 247.934 420.293C248.526 421.317 248.822 422.509 248.822 423.869C248.822 425.229 248.518 426.429 247.91 427.469C247.318 428.493 246.51 429.285 245.486 429.845C244.462 430.405 243.326 430.685 242.078 430.685ZM242.078 428.765C242.862 428.765 243.598 428.581 244.286 428.213C244.974 427.845 245.526 427.293 245.942 426.557C246.374 425.821 246.59 424.925 246.59 423.869C246.59 422.813 246.382 421.917 245.966 421.181C245.55 420.445 245.006 419.901 244.334 419.549C243.662 419.181 242.934 418.997 242.15 418.997C241.35 418.997 240.614 419.181 239.942 419.549C239.286 419.901 238.758 420.445 238.358 421.181C237.958 421.917 237.758 422.813 237.758 423.869C237.758 424.941 237.95 425.845 238.334 426.581C238.734 427.317 239.262 427.869 239.918 428.237C240.574 428.589 241.294 428.765 242.078 428.765ZM258.101 417.077C259.701 417.077 260.997 417.565 261.989 418.541C262.981 419.501 263.477 420.893 263.477 422.717V430.469H261.317V423.029C261.317 421.717 260.989 420.717 260.333 420.029C259.677 419.325 258.781 418.973 257.645 418.973C256.493 418.973 255.573 419.333 254.885 420.053C254.213 420.773 253.877 421.821 253.877 423.197V430.469H251.693V417.317H253.877V419.189C254.309 418.517 254.893 417.997 255.629 417.629C256.381 417.261 257.205 417.077 258.101 417.077ZM275.579 413.741V424.325C275.579 425.813 275.939 426.917 276.659 427.637C277.395 428.357 278.411 428.717 279.707 428.717C280.987 428.717 281.987 428.357 282.707 427.637C283.443 426.917 283.811 425.813 283.811 424.325V413.741H285.995V424.301C285.995 425.693 285.715 426.869 285.155 427.829C284.595 428.773 283.835 429.477 282.875 429.941C281.931 430.405 280.867 430.637 279.683 430.637C278.499 430.637 277.427 430.405 276.467 429.941C275.523 429.477 274.771 428.773 274.211 427.829C273.667 426.869 273.395 425.693 273.395 424.301V413.741H275.579ZM291.823 413.741V430.469H289.639V413.741H291.823ZM303.705 407.861L297.129 434.549H294.969L301.521 407.861H303.705ZM309.095 413.741V424.325C309.095 425.813 309.455 426.917 310.175 427.637C310.911 428.357 311.927 428.717 313.223 428.717C314.503 428.717 315.503 428.357 316.223 427.637C316.959 426.917 317.327 425.813 317.327 424.325V413.741H319.511V424.301C319.511 425.693 319.231 426.869 318.671 427.829C318.111 428.773 317.351 429.477 316.391 429.941C315.447 430.405 314.383 430.637 313.199 430.637C312.015 430.637 310.943 430.405 309.983 429.941C309.039 429.477 308.287 428.773 307.727 427.829C307.183 426.869 306.911 425.693 306.911 424.301V413.741H309.095ZM329.994 422.117L335.13 430.469H332.658L328.65 423.941L324.834 430.469H322.41L327.522 422.117L322.386 413.741H324.834L328.866 420.293L332.706 413.741H335.154L329.994 422.117ZM338.757 430.613C338.341 430.613 337.989 430.469 337.701 430.181C337.413 429.893 337.269 429.541 337.269 429.125C337.269 428.709 337.413 428.357 337.701 428.069C337.989 427.781 338.341 427.637 338.757 427.637C339.157 427.637 339.493 427.781 339.765 428.069C340.053 428.357 340.197 428.709 340.197 429.125C340.197 429.541 340.053 429.893 339.765 430.181C339.493 430.469 339.157 430.613 338.757 430.613Z" fill="white"/>
<path d="M278.462 187.507V232.627H265.918V214.515H250.622V232.627H238.078V187.507H250.622V204.467H265.918V187.507H278.462ZM291.976 193.395C289.758 193.395 287.966 192.797 286.6 191.603C285.278 190.365 284.616 188.829 284.616 186.995C284.616 185.117 285.278 183.56 286.6 182.323C287.966 181.085 289.758 180.467 291.976 180.467C294.152 180.467 295.902 181.085 297.224 182.323C298.59 183.56 299.272 185.117 299.272 186.995C299.272 188.829 298.59 190.365 297.224 191.603C295.902 192.797 294.152 193.395 291.976 193.395ZM298.184 196.723V232.627H285.64V196.723H298.184ZM318.832 221.875L311.984 240.563H304.048L307.376 221.875H318.832ZM350.247 187.507V232.627H337.703V187.507H350.247ZM367.592 214.643C367.592 210.931 368.254 207.688 369.576 204.915C370.942 202.141 372.776 200.008 375.08 198.515C377.427 197.021 380.03 196.275 382.888 196.275C385.363 196.275 387.496 196.765 389.288 197.747C391.08 198.728 392.467 200.051 393.448 201.715V196.723H405.992V232.627H393.448V227.635C392.467 229.299 391.059 230.621 389.224 231.603C387.432 232.584 385.32 233.075 382.888 233.075C380.03 233.075 377.427 232.328 375.08 230.835C372.776 229.341 370.942 227.208 369.576 224.435C368.254 221.619 367.592 218.355 367.592 214.643ZM393.448 214.643C393.448 212.339 392.808 210.525 391.528 209.203C390.291 207.88 388.755 207.219 386.92 207.219C385.043 207.219 383.486 207.88 382.248 209.203C381.011 210.483 380.392 212.296 380.392 214.643C380.392 216.947 381.011 218.781 382.248 220.147C383.486 221.469 385.043 222.131 386.92 222.131C388.755 222.131 390.291 221.469 391.528 220.147C392.808 218.824 393.448 216.989 393.448 214.643ZM460.052 196.403C464.575 196.403 468.116 197.768 470.676 200.499C473.279 203.229 474.58 206.963 474.58 211.699V232.627H462.036V213.363C462.036 211.443 461.503 209.949 460.436 208.883C459.37 207.816 457.919 207.283 456.084 207.283C454.25 207.283 452.799 207.816 451.732 208.883C450.666 209.949 450.132 211.443 450.132 213.363V232.627H437.588V213.363C437.588 211.443 437.055 209.949 435.988 208.883C434.964 207.816 433.535 207.283 431.7 207.283C429.823 207.283 428.351 207.816 427.284 208.883C426.218 209.949 425.684 211.443 425.684 213.363V232.627H413.14V196.723H425.684V201.459C426.794 199.923 428.223 198.707 429.972 197.811C431.764 196.872 433.812 196.403 436.116 196.403C438.762 196.403 441.108 196.979 443.156 198.131C445.247 199.283 446.89 200.904 448.084 202.995C449.364 201.032 451.05 199.453 453.14 198.259C455.231 197.021 457.535 196.403 460.052 196.403Z" fill="white"/>
<path d="M267.966 254.904V284.792C267.966 289.87 266.579 293.752 263.806 296.44C261.075 299.128 257.299 300.472 252.478 300.472C247.358 300.472 243.262 299.043 240.19 296.184C237.16 293.326 235.646 289.208 235.646 283.832H248.062C248.104 287.374 249.406 289.144 251.966 289.144C254.27 289.144 255.422 287.694 255.422 284.792V254.904H267.966ZM292.157 300.472C288.573 300.472 285.351 299.726 282.493 298.232C279.677 296.739 277.458 294.606 275.837 291.832C274.215 289.059 273.405 285.795 273.405 282.04C273.405 278.328 274.215 275.086 275.837 272.312C277.501 269.539 279.741 267.406 282.557 265.912C285.415 264.419 288.637 263.672 292.221 263.672C295.805 263.672 299.005 264.419 301.821 265.912C304.679 267.406 306.919 269.539 308.541 272.312C310.205 275.086 311.037 278.328 311.037 282.04C311.037 285.752 310.205 289.016 308.541 291.832C306.919 294.606 304.679 296.739 301.821 298.232C298.962 299.726 295.741 300.472 292.157 300.472ZM292.157 289.592C293.906 289.592 295.357 288.952 296.509 287.672C297.703 286.35 298.301 284.472 298.301 282.04C298.301 279.608 297.703 277.752 296.509 276.472C295.357 275.192 293.927 274.552 292.221 274.552C290.514 274.552 289.085 275.192 287.933 276.472C286.781 277.752 286.205 279.608 286.205 282.04C286.205 284.515 286.759 286.392 287.869 287.672C288.978 288.952 290.407 289.592 292.157 289.592ZM331.436 300.472C328.194 300.472 325.292 299.939 322.732 298.872C320.215 297.763 318.21 296.27 316.716 294.392C315.266 292.472 314.455 290.318 314.284 287.928H326.444C326.615 289.08 327.148 289.976 328.044 290.616C328.94 291.256 330.05 291.576 331.372 291.576C332.396 291.576 333.207 291.363 333.804 290.936C334.402 290.51 334.7 289.955 334.7 289.272C334.7 288.376 334.21 287.715 333.228 287.288C332.247 286.862 330.626 286.392 328.364 285.88C325.804 285.368 323.671 284.792 321.964 284.152C320.258 283.512 318.764 282.467 317.484 281.016C316.247 279.566 315.628 277.603 315.628 275.128C315.628 272.995 316.204 271.075 317.356 269.368C318.508 267.619 320.194 266.232 322.412 265.208C324.674 264.184 327.383 263.672 330.54 263.672C335.234 263.672 338.924 264.824 341.612 267.128C344.3 269.432 345.858 272.462 346.284 276.216H334.956C334.743 275.064 334.231 274.19 333.42 273.592C332.652 272.952 331.607 272.632 330.284 272.632C329.26 272.632 328.471 272.824 327.916 273.208C327.404 273.592 327.148 274.126 327.148 274.808C327.148 275.662 327.639 276.323 328.62 276.792C329.602 277.219 331.18 277.667 333.356 278.136C335.959 278.691 338.114 279.31 339.82 279.992C341.57 280.675 343.084 281.784 344.364 283.32C345.687 284.814 346.348 286.862 346.348 289.464C346.348 291.555 345.73 293.432 344.492 295.096C343.298 296.76 341.57 298.083 339.308 299.064C337.09 300.003 334.466 300.472 331.436 300.472ZM386.819 281.656C386.819 282.638 386.755 283.619 386.627 284.6H362.883C363.011 286.563 363.545 288.035 364.483 289.016C365.465 289.955 366.702 290.424 368.195 290.424C370.286 290.424 371.779 289.486 372.675 287.608H386.051C385.497 290.083 384.409 292.302 382.787 294.264C381.209 296.184 379.203 297.699 376.771 298.808C374.339 299.918 371.651 300.472 368.707 300.472C365.166 300.472 362.009 299.726 359.235 298.232C356.505 296.739 354.35 294.606 352.771 291.832C351.235 289.059 350.467 285.795 350.467 282.04C350.467 278.286 351.235 275.043 352.771 272.312C354.307 269.539 356.441 267.406 359.171 265.912C361.945 264.419 365.123 263.672 368.707 263.672C372.249 263.672 375.385 264.398 378.115 265.848C380.846 267.299 382.979 269.39 384.515 272.12C386.051 274.808 386.819 277.987 386.819 281.656ZM374.019 278.52C374.019 276.984 373.507 275.79 372.483 274.936C371.459 274.04 370.179 273.592 368.643 273.592C367.107 273.592 365.849 274.019 364.867 274.872C363.886 275.683 363.246 276.899 362.947 278.52H374.019ZM416.747 264.952V272.312H431.147V281.848H416.747V289.976H433.067V300.024H404.203V254.904H433.067V264.952H416.747ZM451.809 252.664V300.024H439.265V252.664H451.809ZM505.865 263.8C510.387 263.8 513.929 265.166 516.489 267.896C519.091 270.627 520.393 274.36 520.393 279.096V300.024H507.849V280.76C507.849 278.84 507.315 277.347 506.249 276.28C505.182 275.214 503.731 274.68 501.897 274.68C500.062 274.68 498.611 275.214 497.545 276.28C496.478 277.347 495.945 278.84 495.945 280.76V300.024H483.401V280.76C483.401 278.84 482.867 277.347 481.801 276.28C480.777 275.214 479.347 274.68 477.513 274.68C475.635 274.68 474.163 275.214 473.097 276.28C472.03 277.347 471.497 278.84 471.497 280.76V300.024H458.953V264.12H471.497V268.856C472.606 267.32 474.035 266.104 475.785 265.208C477.577 264.27 479.625 263.8 481.929 263.8C484.574 263.8 486.921 264.376 488.969 265.528C491.059 266.68 492.702 268.302 493.897 270.392C495.177 268.43 496.862 266.851 498.953 265.656C501.043 264.419 503.347 263.8 505.865 263.8ZM561.569 281.656C561.569 282.638 561.505 283.619 561.377 284.6H537.633C537.761 286.563 538.295 288.035 539.233 289.016C540.215 289.955 541.452 290.424 542.945 290.424C545.036 290.424 546.529 289.486 547.425 287.608H560.801C560.247 290.083 559.159 292.302 557.537 294.264C555.959 296.184 553.953 297.699 551.521 298.808C549.089 299.918 546.401 300.472 543.457 300.472C539.916 300.472 536.759 299.726 533.985 298.232C531.255 296.739 529.1 294.606 527.521 291.832C525.985 289.059 525.217 285.795 525.217 282.04C525.217 278.286 525.985 275.043 527.521 272.312C529.057 269.539 531.191 267.406 533.921 265.912C536.695 264.419 539.873 263.672 543.457 263.672C546.999 263.672 550.135 264.398 552.865 265.848C555.596 267.299 557.729 269.39 559.265 272.12C560.801 274.808 561.569 277.987 561.569 281.656ZM548.769 278.52C548.769 276.984 548.257 275.79 547.233 274.936C546.209 274.04 544.929 273.592 543.393 273.592C541.857 273.592 540.599 274.019 539.617 274.872C538.636 275.683 537.996 276.899 537.697 278.52H548.769ZM579.247 270.456C580.655 268.408 582.361 266.787 584.367 265.592C586.372 264.398 588.527 263.8 590.831 263.8V277.176H587.311C584.58 277.176 582.553 277.71 581.231 278.776C579.908 279.843 579.247 281.699 579.247 284.344V300.024H566.703V264.12H579.247V270.456ZM601.408 300.536C599.189 300.536 597.397 299.939 596.032 298.744C594.709 297.507 594.048 295.95 594.048 294.072C594.048 292.195 594.709 290.638 596.032 289.4C597.397 288.163 599.189 287.544 601.408 287.544C603.584 287.544 605.333 288.163 606.656 289.4C608.021 290.638 608.704 292.195 608.704 294.072C608.704 295.907 608.021 297.443 606.656 298.68C605.333 299.918 603.584 300.536 601.408 300.536Z" fill="white"/>
<path d="M1339.59 -35.5L1440 -69V584H732.868C451.797 559.5 555.983 392.298 1339.59 -35.5Z" fill="#0F5881"/>
<path d="M1366.63 -40.5L1461 -74V579H796.346C532.159 554.5 630.086 387.298 1366.63 -40.5Z" fill="#053754"/>
<path d="M1341.5 -11.5L1461 -74V579L815.5 574C582.433 549.5 691.721 416.298 1341.5 -11.5Z" fill="#ECECEC"/>
<path d="M759.441 434.554C759.441 434.554 746.794 442.562 739.321 462.718C731.848 482.874 739.321 543.877 739.321 543.877C903.912 580.007 1003.11 574.634 1185.75 543.877C1187.23 529.438 1189.98 506.938 1185.75 488.858C1180.14 464.895 1150.45 466.95 1131.99 462.718C1113.52 458.486 1108.55 454.475 1082.57 449.121C1061.46 444.77 1062.59 444.839 1043.11 436.809C1027.11 430.216 1029.93 428.446 1032.65 428.612C999.229 422.886 928.97 410.687 915.32 407.7C901.67 404.712 894.405 405.008 894.405 405.008C894.405 405.008 888.488 405.111 886.805 407.7C884.702 410.936 861.689 419.309 845.094 416.072C828.5 412.836 821.449 422.14 804.855 419.152C788.26 416.165 759.441 434.554 759.441 434.554Z" fill="#ECECEC"/>
<path d="M896.145 415.181C890.276 416.562 891.245 429.421 893.402 428.127L911.679 413.024C908.083 413.024 902.013 413.801 896.145 415.181Z" fill="#7B7B7B"/>
<path d="M917.588 404.79C925.075 394.792 916.653 368.983 917.588 363.402L1040.17 366.425C1040.25 370.998 1040.36 381.12 1040.17 385.026C1039.94 389.909 1035.5 410.371 1032.92 420.834C1030.35 431.297 1035.03 447.806 1035.5 450.596C1035.96 453.386 994.321 479.661 974.202 480.126C958.107 480.498 913.377 445.713 893.024 428.275C898.717 423.779 911.599 412.789 917.588 404.79Z" fill="url(#paint1_linear)"/>
<path d="M1028.97 452.638C1024.14 456.349 981.967 475.141 959.873 475.593C972.301 485.538 991.495 476.4 999.459 472.88C1008.67 468.812 1036.28 455.251 1035.82 450.73C1035.36 446.21 1033.98 444.401 1033.98 444.401C1033.98 444.401 1034.91 448.062 1028.97 452.638Z" fill="#845E3C"/>
<path d="M938.409 406.418C926.478 398.745 921.799 385.724 915.015 365.727L1044.39 362.24C1043.84 367.665 1036.06 392.048 1034.56 398.745C1032.69 407.115 1025.2 408.51 1016.55 414.323C1007.89 420.136 989.409 434.087 980.987 431.995C972.565 429.902 948.702 413.037 938.409 406.418Z" fill="#845E3C"/>
<path d="M959.285 408.344C940.885 403.442 934.687 396.254 920.63 379.897C915.378 373.786 912.154 356.489 909.992 336.043C908.853 336.122 905.731 334.004 902.357 324.901C898.14 313.523 893.22 302.856 892.986 300.959C892.752 299.063 887.832 284.84 889.706 277.728C891.206 272.039 896.11 274.568 898.374 276.543L906.401 286.025C905.429 267.782 904.7 252.05 903.528 244.541L900.014 222.969L915.242 210.406H1062.83L1064.71 277.965C1066.89 280.652 1071.5 287.163 1072.44 291.714C1073.61 297.403 1074.08 302.144 1067.99 322.768C1063.12 339.267 1057.84 341.179 1055.81 340.073C1055.49 340.547 1054.26 343.723 1051.82 352.636C1048.78 363.778 1035.89 387.483 1031.91 393.172C1027.93 398.861 1025.07 401.099 1003.56 408.344C980.285 416.184 979.115 413.626 959.285 408.344Z" fill="#ECC29C"/>
<path d="M1000.66 376.7C998.888 374.849 995.292 376.806 966.725 374.98C958.584 379.223 966.57 377.992 966.441 380.502C966.312 383.012 973.621 385.899 977.037 391.987C980.452 398.074 987.682 388.877 992.446 386.854C997.21 384.83 1002.43 378.551 1000.66 376.7Z" fill="#242424"/>
<path d="M935.836 347.846C941.918 340.173 959.698 339.476 974.904 334.36C984.428 332.441 983.498 341.862 979.115 345.289C977.712 345.134 952.68 347.614 947.065 351.334C941.451 355.054 926.5 358.5 921.565 357.38H924.373C926.166 356.76 930.97 353.985 935.836 347.846Z" fill="#242424"/>
<path d="M988.473 345.289C982.978 341.299 984.793 336.07 990.111 335.29C995.351 335.29 997.5 334.36 1021.69 347.846C1027.79 351.248 1035.81 361.177 1037.83 360.402C1035.5 361.797 1024.5 362.5 1018.89 357.38C1009.44 348.767 995.257 347.226 988.473 345.289Z" fill="#242424"/>
<path d="M1003.21 300.157C1002.04 294.809 995.725 288.299 996.895 282.021C999 284.191 1000.59 288.02 1003.21 291.554C1006.49 295.972 1006.72 298.297 1007.19 300.157C1007.66 302.018 1010.23 305.505 1009.76 307.598C1009.39 309.272 1016.78 325.889 1020.76 331.082C1019.9 331.47 1016.83 330.013 1011.4 321.084C1004.62 309.923 1004.38 305.505 1003.21 300.157Z" fill="#D9A272"/>
<path d="M971.629 283.881C969.836 288.454 973.126 290.345 971.629 292.949C969.758 296.205 964.845 307.365 964.377 309.691C963.909 312.016 965.547 312.481 963.207 314.108C960.868 315.736 955.487 327.827 954.551 328.059C953.616 328.292 957.593 313.411 960.634 311.783C963.675 310.156 966.014 296.67 965.781 292.949C965.701 291.689 964.253 292.296 962.463 293.587C959.374 296.787 956.636 299.521 955.721 300.157C954.174 301.234 958.97 296.108 962.463 293.587C965.697 290.238 969.316 286.378 971.629 283.881Z" fill="#D9A272"/>
<path d="M904.888 298.381C906.722 304.173 909.164 316.954 905.966 317.954C902.769 318.954 899.486 308.278 897.652 302.486C895.818 296.693 895.632 289.007 898.83 288.007C902.027 287.007 903.053 292.588 904.888 298.381Z" fill="#D9A272"/>
<path d="M1068.48 311.647C1066.62 319.955 1061.8 326.555 1060.59 326.287C1059.38 326.018 1060.07 320.222 1061.93 311.914C1063.8 303.606 1066.13 295.933 1067.35 296.201C1068.56 296.47 1070.35 303.339 1068.48 311.647Z" fill="#D9A272"/>
<path d="M980.051 218.776C938.877 219.241 920.396 253.421 913.144 256.677L924.373 224.357L925.776 216.219C937.396 212.731 963.582 205.151 975.372 202.733C990.111 199.71 1017.72 206.22 1025.9 207.615C1032.45 208.732 1051.87 217.846 1060.76 222.264C1058.5 224.512 1052.2 228.403 1045.09 225.984C1036.2 222.962 1021.22 218.311 980.051 218.776Z" fill="#D9A272"/>
<path d="M915.015 251.794C922.969 237.378 930.689 230.402 932.561 218.776C929.442 219.939 907.155 228.402 899.107 235.285C889.047 243.888 895.598 251.794 894.428 262.257C893.258 272.72 895.598 272.023 899.107 280.161C902.616 288.299 906.593 325.967 906.593 318.061V297.135C906.593 289.229 907.061 266.21 915.015 251.794Z" fill="#242424"/>
<path d="M1070.59 241.098C1065.35 232.541 1049.06 222.109 1041.58 220.869C1041.03 221.799 1050.19 230.077 1050 232.495C1049.81 234.913 1050.55 246.368 1056.08 251.794L1062.63 258.537V294.577C1062.63 297.739 1058.27 323.177 1056.08 335.5C1056.78 333.872 1059.08 326.99 1062.63 312.481C1067.08 294.344 1065.67 297.135 1065.67 287.601C1065.67 278.068 1070.59 280.161 1075.27 269.698C1079.94 259.234 1077.14 251.794 1070.59 241.098Z" fill="#242424"/>
<path d="M920.864 311.086C910.103 310.388 909.401 291.322 908.231 288.299C913.144 274.58 963.207 285.742 961.102 296.205C958.996 306.668 951.51 311.086 950.808 311.086C950.107 311.086 931.625 311.784 920.864 311.086Z" fill="#D9A272"/>
<path d="M1018.04 309.725C1007.27 309.028 1007.98 299.029 1006.81 296.007C1004.23 284.381 1060.38 284.381 1058.27 294.844C1056.17 305.307 1047.98 309.725 1047.98 309.725C1047.98 309.725 1028.8 310.423 1018.04 309.725Z" fill="#D9A272"/>
<path d="M922.267 252.026C915.155 252.026 904.176 253.886 899.575 254.816C899.809 259.312 900.417 268.349 900.979 268.535C901.68 268.767 904.254 268.535 908.231 286.904C912.208 305.273 923.203 307.133 923.203 307.133C923.203 307.133 942.62 308.605 951.042 307.83C955.019 307.133 961.336 303.18 962.973 302.25C964.611 301.32 969.524 296.437 970.459 293.879C971.395 291.322 975.138 283.184 975.606 281.788C975.98 280.672 978.257 274.503 979.349 271.558C980.051 271.093 982.11 270.209 984.73 270.395C988.005 270.628 985.9 270.395 988.941 271.558C991.982 272.72 995.725 293.647 1004.85 302.25C1013.97 310.853 1039.24 307.598 1045.09 307.133C1049.77 306.761 1051.4 305.04 1052.34 304.343C1058.66 300.855 1063.57 286.439 1063.57 281.788C1063.57 277.138 1070.12 267.372 1070.12 267.372C1070.12 267.372 1070.9 257.452 1070.12 253.654C1069.49 253.111 1067.29 252.446 1063.57 252.026C1053.28 250.864 1037.37 250.864 1030.58 250.864H1030.58C1023.8 250.864 1012.34 252.724 1006.72 253.654C1002.23 254.398 995.725 255.901 993.386 257.374C988.005 257.762 976.402 258.304 973.033 257.374C969.664 256.444 964.923 255.281 962.973 254.816C948.235 251.794 931.157 252.026 922.267 252.026Z" fill="#403E3E"/>
<path d="M1071.29 210.358C1071.29 235.254 1022.48 202.546 973.255 202.546C924.027 202.546 893.024 235.254 893.024 210.358C893.024 185.461 933.673 136 982.901 136C1032.13 136 1071.29 185.461 1071.29 210.358Z" fill="#646464"/>
<path d="M1066.61 208.458C1066.61 220.164 1025.95 208.458 984.149 208.458C942.352 208.458 903.084 217.926 903.084 206.22C903.084 194.515 942.352 177.388 984.149 177.388C1025.95 177.388 1066.61 196.753 1066.61 208.458Z" fill="#505050"/>
<path d="M908.933 201.802C905.891 203.591 896.173 208.778 889.983 215.986C884.672 222.171 879.79 225.991 879.69 234.122C879.574 243.566 889.1 253.544 893.025 254.351C898.795 249.314 903.875 243.976 907.061 241.563C911.974 237.843 941.678 219.966 961.57 215.986C986.753 210.947 1002.37 212.179 1027.31 218.311C1050 223.892 1065.21 237.145 1073.39 249.236L1077.37 253.886C1079.63 250.554 1084.48 244.761 1085.09 237.843C1085.58 232.308 1085.01 228.742 1082.28 223.892C1073.39 208.08 1064.08 203.958 1048.83 196.92C1023 185 1007.5 183.434 979.583 183.434C951.064 183.434 931.391 188.595 908.933 201.802Z" fill="url(#paint2_linear)"/>
<path d="M865.603 525.663C867.686 534.569 864.735 548.265 863 554C862.5 554.5 866.749 555.035 871.5 555.5C871.5 554.488 870.497 549.041 873.412 541.349C876.328 533.658 867.686 518.578 863 512C863 512.843 863.521 516.757 865.603 525.663Z" fill="#C4C4C4"/>
<path d="M870.5 550.017C936.267 542.673 1070.5 545.395 1088 551.511C1093.03 553.269 1097.32 554.126 1100.89 554.46C1103.96 554.359 1107.06 554.258 1110.19 554.156C1112.86 553.687 1114.43 553.036 1115 553.004V554C1113.39 554.052 1111.79 554.104 1110.19 554.156C1107.91 554.558 1104.83 554.826 1100.89 554.46C981.523 558.365 915.9 560.86 868 555L870.5 550.017Z" fill="#C4C4C4"/>
<path d="M1102.12 522.701C1101.96 526.606 1096.76 532.853 1095.89 535L1100.68 534.112C1100.62 533.774 1102.19 532.117 1103.78 529.16C1105.37 526.203 1106.27 519.362 1102.55 517.775C1102.6 518.057 1102.25 519.279 1102.12 522.701Z" fill="#C4C4C4"/>
<path d="M1452.82 -35.5L1542 -69V584H968C1111.91 319.864 1213.72 182.102 1452.82 -35.5Z" fill="#053754"/>
<defs>
<linearGradient id="paint0_linear" x1="718.5" y1="-17.5993" x2="718.5" y2="555.73" gradientUnits="userSpaceOnUse">
<stop offset="0.463542"/>
<stop offset="1" stop-color="#002F43"/>
</linearGradient>
<linearGradient id="paint1_linear" x1="966.651" y1="363.402" x2="966.651" y2="480.129" gradientUnits="userSpaceOnUse">
<stop offset="0.703125" stop-color="#ECC29C"/>
<stop offset="1" stop-color="#E4AB78"/>
</linearGradient>
<linearGradient id="paint2_linear" x1="982.469" y1="183.259" x2="982.469" y2="254.351" gradientUnits="userSpaceOnUse">
<stop stop-color="#949494"/>
<stop offset="1" stop-color="#373737"/>
</linearGradient>
</defs>
</svg>
