<svg width="251" height="263" viewBox="0 0 251 263" fill="none" xmlns="http://www.w3.org/2000/svg">
<path d="M13.0171 168.238C13.0171 168.238 5.99418 172.751 1.84435 184.109C-2.30547 195.467 1.84441 229.843 1.84441 229.843C93.8295 273.536 148.969 272.72 249.748 229.843C250.57 221.706 252.098 209.028 249.748 198.839C246.634 185.336 230.15 186.494 219.896 184.109C209.642 181.724 206.881 179.464 192.456 176.447C180.73 173.995 181.36 174.034 170.541 169.509C161.659 165.794 163.22 164.796 164.734 164.89C146.174 161.663 107.158 154.789 99.5782 153.106C91.9983 151.422 87.9639 151.589 87.9639 151.589C87.9639 151.589 84.678 151.647 83.7435 153.106C82.5754 154.929 69.7965 159.647 60.5812 157.824C51.3659 156 47.4509 161.243 38.2356 159.559C29.0204 157.876 13.0171 168.238 13.0171 168.238Z" fill="#ECECEC"/>
<path d="M88.9299 157.322C85.6711 158.1 86.2088 165.346 87.4069 164.616L97.5561 156.106C95.5593 156.106 92.1887 156.544 88.9299 157.322Z" fill="#7B7B7B"/>
<path d="M100.838 151.466C104.995 145.832 100.318 131.288 100.838 128.144L168.911 129.847C168.954 132.424 169.015 138.128 168.911 140.329C168.781 143.08 166.313 154.611 164.884 160.507C163.455 166.403 166.053 175.706 166.313 177.278C166.572 178.851 143.448 193.657 132.276 193.919C123.338 194.128 98.4994 174.527 87.1971 164.7C90.3583 162.167 97.512 155.973 100.838 151.466Z" fill="url(#paint0_linear)"/>
<path d="M162.687 178.429C160.007 180.52 136.588 191.109 124.319 191.364C131.22 196.968 141.879 191.819 146.301 189.836C151.414 187.543 166.75 179.901 166.495 177.354C166.239 174.806 165.472 173.787 165.472 173.787C165.472 173.787 165.99 175.85 162.687 178.429Z" fill="#845E3C"/>
<path d="M112.4 152.383C105.774 148.059 103.176 140.722 99.4088 129.454L171.249 127.488C170.946 130.546 166.624 144.286 165.793 148.059C164.754 152.776 160.597 153.563 155.79 156.838C150.983 160.114 140.72 167.975 136.044 166.796C131.367 165.617 118.115 156.113 112.4 152.383Z" fill="#845E3C"/>
<path d="M123.993 153.468C113.775 150.706 110.333 146.656 102.527 137.439C99.6105 133.995 97.82 124.248 96.6195 112.726C95.9868 112.771 94.253 111.577 92.3797 106.448C90.038 100.036 87.306 94.0249 87.1759 92.9563C87.0458 91.8876 84.3138 83.8727 85.3546 79.8653C86.1872 76.6594 88.9105 78.0842 90.1681 79.1974L94.6255 84.5406C94.0856 74.2606 93.6808 65.3954 93.0301 61.164L91.0787 49.0081L99.5348 41.9283H181.494L182.535 79.9989C183.749 81.5128 186.308 85.1818 186.828 87.7466C187.478 90.9525 187.739 93.6242 184.356 105.246C181.65 114.543 178.719 115.62 177.591 114.997C177.418 115.264 176.733 117.054 175.38 122.077C173.688 128.355 166.533 141.713 164.322 144.919C162.11 148.125 160.524 149.386 148.58 153.468C135.654 157.886 135.004 156.445 123.993 153.468Z" fill="#ECC29C"/>
<path d="M146.966 135.637C145.984 134.594 143.987 135.696 128.124 134.668C123.603 137.059 128.038 136.365 127.966 137.779C127.895 139.194 131.953 140.821 133.85 144.251C135.747 147.681 139.761 142.499 142.407 141.359C145.053 140.219 147.949 136.68 146.966 135.637Z" fill="#242424"/>
<path d="M110.971 119.378C114.349 115.054 124.222 114.661 132.666 111.778C137.954 110.696 137.438 116.005 135.004 117.936C134.225 117.849 120.324 119.247 117.207 121.343C114.089 123.439 105.787 125.381 103.046 124.75H104.605C105.601 124.4 108.269 122.837 110.971 119.378Z" fill="#242424"/>
<path d="M140.201 117.936C137.149 115.688 138.157 112.741 141.11 112.302C144.02 112.302 145.214 111.778 158.648 119.378C162.037 121.294 166.486 126.89 167.612 126.453C166.313 127.239 160.207 127.635 157.089 124.75C151.845 119.897 143.968 119.028 140.201 117.936Z" fill="#242424"/>
<path d="M148.385 92.5044C147.736 89.4908 144.228 85.8221 144.878 82.2844C146.047 83.5073 146.93 85.6648 148.385 87.6564C150.204 90.1459 150.334 91.4562 150.594 92.5044C150.853 93.5526 152.282 95.518 152.023 96.6972C151.815 97.6406 155.92 107.005 158.128 109.931C157.652 110.149 155.946 109.328 152.932 104.297C149.165 98.0075 149.035 95.518 148.385 92.5044Z" fill="#D9A272"/>
<path d="M130.847 83.3326C129.851 85.9094 131.679 86.9751 130.847 88.4426C129.808 90.277 127.08 96.5662 126.82 97.8765C126.56 99.1867 127.47 99.4488 126.17 100.366C124.871 101.283 121.883 108.096 121.364 108.228C120.844 108.359 123.053 99.9729 124.741 99.0557C126.43 98.1385 127.729 90.539 127.599 88.4426C127.555 87.7325 126.751 88.0747 125.757 88.8022C124.042 90.6052 122.521 92.1459 122.013 92.5044C121.154 93.1109 123.817 90.2224 125.757 88.8022C127.553 86.9148 129.563 84.7398 130.847 83.3326Z" fill="#D9A272"/>
<path d="M93.785 91.5032C94.8035 94.7674 96.1595 101.969 94.384 102.533C92.6085 103.097 90.7856 97.0807 89.767 93.8165C88.7485 90.5523 88.6454 86.221 90.421 85.6574C92.1965 85.0938 92.7664 88.239 93.785 91.5032Z" fill="#D9A272"/>
<path d="M184.631 98.9792C183.596 103.661 180.923 107.38 180.25 107.229C179.578 107.077 179.959 103.811 180.994 99.1295C182.03 94.4479 183.327 90.1237 183.999 90.275C184.672 90.4263 185.666 94.2975 184.631 98.9792Z" fill="#D9A272"/>
<path d="M135.524 46.6453C112.66 46.9074 102.397 66.1682 98.3695 68.0026L104.605 49.7899L105.385 45.204C111.837 43.2386 126.378 38.9672 132.926 37.6045C141.11 35.9012 156.439 39.5699 160.986 40.3561C164.624 40.985 175.406 46.1212 180.343 48.6107C179.087 49.8773 175.588 52.0698 171.639 50.7071C166.702 49.0038 158.388 46.3833 135.524 46.6453Z" fill="#D9A272"/>
<path d="M99.4088 65.251C103.826 57.1273 108.113 53.1966 109.152 46.6453C107.42 47.3004 95.0438 52.0697 90.5748 55.9481C84.9887 60.7961 88.6262 65.251 87.9766 71.1471C87.3271 77.0433 88.6262 76.6502 90.5748 81.2361C92.5235 85.8221 94.732 107.048 94.732 102.593V90.801C94.732 86.3462 94.9918 73.3746 99.4088 65.251Z" fill="#242424"/>
<path d="M185.799 59.2238C182.889 54.402 173.847 48.5233 169.69 47.8245C169.387 48.3486 174.471 53.0131 174.367 54.3758C174.263 55.7385 174.67 62.1937 177.745 65.251L181.382 69.0507V89.3598C181.382 91.1417 178.957 105.476 177.745 112.42C178.134 111.503 179.408 107.625 181.382 99.4488C183.851 89.2287 183.071 90.801 183.071 85.429C183.071 80.0569 185.799 81.2361 188.397 75.34C190.996 69.4438 189.437 65.251 185.799 59.2238Z" fill="#242424"/>
<path d="M102.657 98.6628C96.6809 98.2697 96.291 87.5254 95.6415 85.8221C98.3696 78.0915 126.171 84.381 125.001 90.2771C123.832 96.1733 119.675 98.6628 119.285 98.6628C118.896 98.6628 108.633 99.0559 102.657 98.6628Z" fill="#D9A272"/>
<path d="M156.617 97.896C150.641 97.503 151.031 91.8688 150.381 90.1655C148.952 83.6142 180.131 83.6142 178.962 89.5104C177.793 95.4065 173.246 97.896 173.246 97.896C173.246 97.896 162.593 98.2891 156.617 97.896Z" fill="#D9A272"/>
<path d="M103.436 65.382C99.4868 65.382 93.3896 66.4302 90.8347 66.9543C90.9646 69.4875 91.3024 74.58 91.6142 74.6848C92.0039 74.8159 93.4329 74.6848 95.6414 85.0359C97.8499 95.387 103.956 96.4352 103.956 96.4352C103.956 96.4352 114.738 97.265 119.415 96.8283C121.623 96.4352 125.131 94.2077 126.04 93.6836C126.95 93.1595 129.678 90.408 130.198 88.9667C130.717 87.5254 132.796 82.9395 133.056 82.1533C133.263 81.5244 134.528 78.0478 135.134 76.3882C135.524 76.1261 136.667 75.6282 138.122 75.7331C139.941 75.8641 138.772 75.7331 140.461 76.3882C142.149 77.0433 144.228 88.8357 149.294 93.6836C154.361 98.5316 168.391 96.6972 171.639 96.4352C174.237 96.2255 175.147 95.2559 175.666 94.8629C179.174 92.8975 181.902 84.7739 181.902 82.1533C181.902 79.5328 185.539 74.0297 185.539 74.0297C185.539 74.0297 185.972 68.4393 185.539 66.2992C185.193 65.9935 183.967 65.6187 181.902 65.382C176.186 64.7269 167.352 64.7269 163.585 64.7269H163.585C159.817 64.7269 153.452 65.7751 150.334 66.2992C147.839 66.7185 144.228 67.5658 142.929 68.3956C139.941 68.614 133.497 68.9197 131.627 68.3956C129.756 67.8715 127.123 67.2164 126.04 66.9543C117.856 65.251 108.373 65.382 103.436 65.382Z" fill="#403E3E"/>
<path d="M186.189 41.9013C186.189 55.9306 159.087 37.4993 131.75 37.4993C104.413 37.4993 87.1971 55.9306 87.1971 41.9013C87.1971 27.872 109.77 0 137.107 0C164.443 0 186.189 27.872 186.189 41.9013Z" fill="#646464"/>
<path d="M183.591 40.8311C183.591 47.4274 161.011 40.8311 137.8 40.8311C114.589 40.8311 92.7834 46.1662 92.7834 39.5699C92.7834 32.9736 114.589 23.3227 137.8 23.3227C161.011 23.3227 183.591 34.2347 183.591 40.8311Z" fill="#505050"/>
<path d="M96.0312 37.0804C94.3423 38.0882 88.9456 41.0112 85.5084 45.073C82.5589 48.5585 79.8479 50.711 79.7923 55.293C79.7278 60.6147 85.0177 66.2375 87.1972 66.6923C90.4017 63.8534 93.2227 60.8454 94.9919 59.4859C97.72 57.3894 114.215 47.3157 125.261 45.073C139.245 42.2336 147.918 42.9276 161.766 46.3832C174.367 49.5279 182.811 56.9964 187.358 63.8097L189.567 66.4302C190.823 64.5522 193.515 61.2882 193.854 57.3894C194.125 54.2704 193.809 52.261 192.295 49.5279C187.358 40.6181 182.188 38.2953 173.718 34.3289C159.374 27.612 150.767 26.7293 135.264 26.7293C119.427 26.7294 108.503 29.6381 96.0312 37.0804Z" fill="url(#paint1_linear)"/>
<path d="M68.5256 238.738C69.682 243.757 68.0437 251.475 67.08 254.707C66.8024 254.989 68 255 72.5 256C72.5 255.43 71.2432 251.912 72.8622 247.578C74.4812 243.244 69.682 234.746 67.08 231.039C67.08 231.515 67.3691 233.72 68.5256 238.738Z" fill="#C4C4C4"/>
<path d="M207.729 239.921C206.324 242.37 193.895 249.431 191.5 251L202 248C204 247.5 209 245.5 209 245.5C209 245.5 211 236 209.35 231C209.379 231.159 208.96 237.776 207.729 239.921Z" fill="#C4C4C4"/>
<defs>
<linearGradient id="paint0_linear" x1="128.083" y1="128.144" x2="128.083" y2="193.92" gradientUnits="userSpaceOnUse">
<stop offset="0.703125" stop-color="#ECC29C"/>
<stop offset="1" stop-color="#E4AB78"/>
</linearGradient>
<linearGradient id="paint1_linear" x1="136.866" y1="26.6312" x2="136.866" y2="66.6923" gradientUnits="userSpaceOnUse">
<stop stop-color="#949494"/>
<stop offset="1" stop-color="#373737"/>
</linearGradient>
</defs>
</svg>
